<?xml version="1.0" encoding="UTF-8" standalone="no"?>
<!-- Created with Inkscape (http://www.inkscape.org/) -->

<svg
   xmlns:dc="http://purl.org/dc/elements/1.1/"
   xmlns:cc="http://creativecommons.org/ns#"
   xmlns:rdf="http://www.w3.org/1999/02/22-rdf-syntax-ns#"
   xmlns:svg="http://www.w3.org/2000/svg"
   xmlns="http://www.w3.org/2000/svg"
   xmlns:sodipodi="http://sodipodi.sourceforge.net/DTD/sodipodi-0.dtd"
   xmlns:inkscape="http://www.inkscape.org/namespaces/inkscape"
   width="128"
   height="128"
   viewBox="0 0 33.866667 33.866667"
   version="1.1"
   id="svg827"
   inkscape:version="0.92.3 (2405546, 2018-03-11)"
   sodipodi:docname="triangle_long_hair_bottom.svg"
   inkscape:export-filename="C:\Users\steve\Documents\ludum-dare-43\assets\square_avatar_1.png"
   inkscape:export-xdpi="96"
   inkscape:export-ydpi="96">
  <defs
     id="defs821" />
  <sodipodi:namedview
     id="base"
     pagecolor="#ffffff"
     bordercolor="#666666"
     borderopacity="1.0"
     inkscape:pageopacity="0.0"
     inkscape:pageshadow="2"
     inkscape:zoom="9.0208696"
     inkscape:cx="108.94694"
     inkscape:cy="73.127808"
     inkscape:document-units="mm"
     inkscape:current-layer="layer10"
     showgrid="false"
     units="px"
     width="96px"
     inkscape:window-width="2736"
     inkscape:window-height="1699"
     inkscape:window-x="-13"
     inkscape:window-y="-13"
     inkscape:window-maximized="1"
     showguides="true"
     inkscape:guide-bbox="true">
    <sodipodi:guide
       position="-44.875109,8.2124382"
       orientation="1,0"
       id="guide6466"
       inkscape:locked="false" />
  </sodipodi:namedview>
  <metadata
     id="metadata824">
    <rdf:RDF>
      <cc:Work
         rdf:about="">
        <dc:format>image/svg+xml</dc:format>
        <dc:type
           rdf:resource="http://purl.org/dc/dcmitype/StillImage" />
        <dc:title></dc:title>
      </cc:Work>
    </rdf:RDF>
  </metadata>
  <g
     inkscape:groupmode="layer"
     id="layer10"
     inkscape:label="long_hair_bottom"
     style="display:inline">
    <path
       style="fill:#ffcc00;fill-opacity:1;stroke:none;stroke-width:0.26458332px;stroke-linecap:butt;stroke-linejoin:miter;stroke-opacity:1"
       d="m 8.1537778,8.6720796 c 0,0 -2.5223918,0.4692823 -0.7039234,5.0741134 2.0451686,5.178895 3.4902866,9.180333 3.8422486,13.785165 0.351961,4.604832 -0.117321,8.623059 -0.117321,8.623059 l 2.786363,0.909236 c 0,0 0.879904,-9.473634 -0.997225,-13.843826 C 11.086792,18.849637 10.089567,8.4667687 10.089567,8.4667687 Z"
       id="path6491"
       inkscape:connector-curvature="0"
       sodipodi:nodetypes="cssccscc" />
    <path
       sodipodi:nodetypes="cssccscc"
       inkscape:connector-curvature="0"
       id="path6493"
       d="m 9.5185343,8.6275031 c 0,0 -2.5223922,0.4692823 -0.7039238,5.0741129 2.0451685,5.178895 3.4902865,9.180333 3.8422485,13.785165 0.351961,4.604832 -0.117321,8.623059 -0.117321,8.623059 l 2.786363,0.909236 c 0,0 0.879904,-9.473634 -0.997225,-13.843826 C 12.451548,18.80506 11.454323,8.4221922 11.454323,8.4221922 Z"
       style="fill:#d38d5f;fill-opacity:1;stroke:none;stroke-width:0.26458332px;stroke-linecap:butt;stroke-linejoin:miter;stroke-opacity:1" />
    <path
       sodipodi:nodetypes="cssccscc"
       inkscape:connector-curvature="0"
       id="path6495"
       d="m 20.912387,9.3173426 c 0,0 -3.372966,0.5279426 -1.554497,5.1327734 2.045168,5.178895 3.519617,6.687273 2.786364,13.139903 -0.521447,4.588731 -0.205312,8.241767 -0.205312,8.241767 l 2.786363,0.909236 c 0,0 -0.09789,-10.351014 -0.645263,-15.075692 C 23.52277,16.855188 22.848176,9.1120317 22.848176,9.1120317 Z"
       style="fill:#d38d5f;fill-opacity:1;stroke:none;stroke-width:0.26458332px;stroke-linecap:butt;stroke-linejoin:miter;stroke-opacity:1" />
    <path
       style="fill:#ffcc00;fill-opacity:1;stroke:none;stroke-width:0.26458332px;stroke-linecap:butt;stroke-linejoin:miter;stroke-opacity:1"
       d="m 23.072137,9.7703269 c 0,0 -2.560437,0.1638772 -1.306429,4.9533191 1.410338,5.386522 3.656457,6.863166 1.724031,13.23682 -1.339975,4.419594 -0.709041,9.456205 -0.709041,9.456205 l 2.657445,1.236331 c 0,0 -1.892977,-7.942052 -0.03633,-13.48234 C 26.91312,20.660881 23.51563,20.44436 27.101019,12.115363 28.219271,9.5176191 23.072135,9.7703269 23.072135,9.7703269 Z"
       id="path6497"
       inkscape:connector-curvature="0"
       sodipodi:nodetypes="cssccsscc" />
  </g>
</svg>
