<?xml version="1.0" encoding="UTF-8" standalone="no"?>
<!-- Created with Inkscape (http://www.inkscape.org/) -->

<svg
   xmlns:dc="http://purl.org/dc/elements/1.1/"
   xmlns:cc="http://creativecommons.org/ns#"
   xmlns:rdf="http://www.w3.org/1999/02/22-rdf-syntax-ns#"
   xmlns:svg="http://www.w3.org/2000/svg"
   xmlns="http://www.w3.org/2000/svg"
   xmlns:sodipodi="http://sodipodi.sourceforge.net/DTD/sodipodi-0.dtd"
   xmlns:inkscape="http://www.inkscape.org/namespaces/inkscape"
   width="128"
   height="128"
   viewBox="0 0 33.866667 33.866667"
   version="1.1"
   id="svg827"
   inkscape:version="0.92.3 (2405546, 2018-03-11)"
   sodipodi:docname="circle_baseball_cap.svg"
   inkscape:export-filename="C:\Users\steve\Documents\ludum-dare-43\assets\square_avatar_1.png"
   inkscape:export-xdpi="96"
   inkscape:export-ydpi="96">
  <defs
     id="defs821" />
  <sodipodi:namedview
     id="base"
     pagecolor="#ffffff"
     bordercolor="#666666"
     borderopacity="1.0"
     inkscape:pageopacity="0.0"
     inkscape:pageshadow="2"
     inkscape:zoom="9.0208696"
     inkscape:cx="53.795114"
     inkscape:cy="54.059025"
     inkscape:document-units="mm"
     inkscape:current-layer="layer15"
     showgrid="false"
     units="px"
     width="96px"
     inkscape:window-width="2736"
     inkscape:window-height="1699"
     inkscape:window-x="-13"
     inkscape:window-y="-13"
     inkscape:window-maximized="1"
     showguides="true"
     inkscape:guide-bbox="true">
    <sodipodi:guide
       position="-44.875109,8.2124382"
       orientation="1,0"
       id="guide6466"
       inkscape:locked="false" />
  </sodipodi:namedview>
  <metadata
     id="metadata824">
    <rdf:RDF>
      <cc:Work
         rdf:about="">
        <dc:format>image/svg+xml</dc:format>
        <dc:type
           rdf:resource="http://purl.org/dc/dcmitype/StillImage" />
        <dc:title></dc:title>
      </cc:Work>
    </rdf:RDF>
  </metadata>
  <g
     inkscape:groupmode="layer"
     id="layer15"
     inkscape:label="baseball_cap"
     style="display:inline"
     sodipodi:insensitive="true">
    <path
       style="fill:#677821;fill-opacity:1;stroke:none;stroke-width:0.78666759;stroke-miterlimit:4;stroke-dasharray:none;stroke-opacity:1"
       d="M 17.498892,1.2043206 C 12.216111,0.94006236 7.8195633,4.1493817 7.679166,8.3723619 c 8.67e-5,0.020419 2.752e-4,0.040841 5.659e-4,0.061265 0,0 5.5248661,0.6688067 9.6218621,0.7450022 4.436294,0.082506 7.27688,-0.4418175 9.292211,-0.8764442 0.140721,-4.22283 -3.812283,-6.8337307 -9.0949,-7.0978638 z"
       id="path6455"
       inkscape:connector-curvature="0"
       sodipodi:nodetypes="cccsccc" />
    <path
       style="fill:#677821;fill-opacity:1;stroke:none;stroke-width:0.26458332px;stroke-linecap:butt;stroke-linejoin:miter;stroke-opacity:1"
       d="M 8.7833913,8.6288065 1.8369227,8.1964028 2.0511295,6.297135 9.5076225,6.8899908 Z"
       id="path6460"
       inkscape:connector-curvature="0"
       sodipodi:nodetypes="ccccc" />
    <path
       style="fill:#445016;stroke:none;stroke-width:0.26458332px;stroke-linecap:butt;stroke-linejoin:miter;stroke-opacity:1"
       d="m 1.8369227,8.1964028 c 0,0 2.87657,0.3868081 5.8008447,0.614943 2.9242746,0.2281351 6.6814156,0.6954072 10.9537296,0.7258838 4.412415,0.031476 8.004408,-0.7906715 8.004408,-0.7906715 l -0.0021,-0.4443732 c 0,0 -4.407152,0.6636652 -7.103292,0.8088421 C 16.794273,9.2562039 10.752231,8.6391798 6.1237811,8.2202691 1.4262759,7.7951084 1.9095111,7.7816121 1.9095111,7.7816121 Z"
       id="path6462"
       inkscape:connector-curvature="0"
       sodipodi:nodetypes="csscccscc" />
    <path
       style="fill:#445016;fill-opacity:1;stroke:none;stroke-width:0.26458332px;stroke-linecap:butt;stroke-linejoin:miter;stroke-opacity:1"
       d="m 19.023097,1.6091408 c 0,0 -0.967956,0.4383179 -1.682976,0.4180076 -0.71502,-0.02031 -1.595539,-0.4957322 -1.595539,-0.4957322 0,0 0.418606,-0.86372026 1.644189,-0.87111629 1.13043,-0.006822 1.634326,0.94884029 1.634326,0.94884089 z"
       id="path6464"
       inkscape:connector-curvature="0"
       sodipodi:nodetypes="cscsc" />
  </g>
</svg>
