<?xml version="1.0" encoding="UTF-8" standalone="no"?>
<!-- Created with Inkscape (http://www.inkscape.org/) -->

<svg
   xmlns:dc="http://purl.org/dc/elements/1.1/"
   xmlns:cc="http://creativecommons.org/ns#"
   xmlns:rdf="http://www.w3.org/1999/02/22-rdf-syntax-ns#"
   xmlns:svg="http://www.w3.org/2000/svg"
   xmlns="http://www.w3.org/2000/svg"
   xmlns:sodipodi="http://sodipodi.sourceforge.net/DTD/sodipodi-0.dtd"
   xmlns:inkscape="http://www.inkscape.org/namespaces/inkscape"
   width="128"
   height="128"
   viewBox="0 0 33.866667 33.866667"
   version="1.1"
   id="svg827"
   inkscape:version="0.92.3 (2405546, 2018-03-11)"
   sodipodi:docname="circle_long_hair_bottom.svg"
   inkscape:export-filename="C:\Users\steve\Documents\ludum-dare-43\assets\square_avatar_1.png"
   inkscape:export-xdpi="96"
   inkscape:export-ydpi="96">
  <defs
     id="defs821" />
  <sodipodi:namedview
     id="base"
     pagecolor="#ffffff"
     bordercolor="#666666"
     borderopacity="1.0"
     inkscape:pageopacity="0.0"
     inkscape:pageshadow="2"
     inkscape:zoom="9.0208696"
     inkscape:cx="53.795114"
     inkscape:cy="54.059025"
     inkscape:document-units="mm"
     inkscape:current-layer="layer10"
     showgrid="false"
     units="px"
     width="96px"
     inkscape:window-width="2736"
     inkscape:window-height="1699"
     inkscape:window-x="-13"
     inkscape:window-y="-13"
     inkscape:window-maximized="1"
     showguides="true"
     inkscape:guide-bbox="true">
    <sodipodi:guide
       position="-44.875109,8.2124382"
       orientation="1,0"
       id="guide6466"
       inkscape:locked="false" />
  </sodipodi:namedview>
  <metadata
     id="metadata824">
    <rdf:RDF>
      <cc:Work
         rdf:about="">
        <dc:format>image/svg+xml</dc:format>
        <dc:type
           rdf:resource="http://purl.org/dc/dcmitype/StillImage" />
        <dc:title></dc:title>
      </cc:Work>
    </rdf:RDF>
  </metadata>
  <g
     inkscape:groupmode="layer"
     id="layer10"
     inkscape:label="long_hair_bottom"
     style="display:inline">
    <path
       style="color:#000000;font-style:normal;font-variant:normal;font-weight:normal;font-stretch:normal;font-size:medium;line-height:normal;font-family:sans-serif;font-variant-ligatures:normal;font-variant-position:normal;font-variant-caps:normal;font-variant-numeric:normal;font-variant-alternates:normal;font-feature-settings:normal;text-indent:0;text-align:start;text-decoration:none;text-decoration-line:none;text-decoration-style:solid;text-decoration-color:#000000;letter-spacing:normal;word-spacing:normal;text-transform:none;writing-mode:lr-tb;direction:ltr;text-orientation:mixed;dominant-baseline:auto;baseline-shift:baseline;text-anchor:start;white-space:normal;shape-padding:0;clip-rule:nonzero;display:inline;overflow:visible;visibility:visible;opacity:1;isolation:auto;mix-blend-mode:normal;color-interpolation:sRGB;color-interpolation-filters:linearRGB;solid-color:#000000;solid-opacity:1;vector-effect:none;fill:#f1c100;fill-opacity:1;fill-rule:nonzero;stroke:none;stroke-width:1.05833328;stroke-linecap:butt;stroke-linejoin:miter;stroke-miterlimit:4;stroke-dasharray:none;stroke-dashoffset:0;stroke-opacity:1;color-rendering:auto;image-rendering:auto;shape-rendering:auto;text-rendering:auto;enable-background:accumulate"
       d="m 8.6738281,11.802734 c 0,0 -0.4086785,0.140236 -0.8183593,0.441407 -0.4096809,0.30117 -0.895462,0.82548 -0.8847657,1.574218 0.00557,0.389952 0.1748505,0.729221 0.3769531,0.96875 0.2021027,0.239529 0.4311266,0.406475 0.6289063,0.556641 0.1977797,0.150166 0.365024,0.284484 0.4648437,0.402344 0.09982,0.117859 0.1389052,0.197004 0.1445313,0.332031 0.00501,0.120158 -0.00791,0.134563 -0.095703,0.224609 -0.087794,0.09005 -0.2694839,0.207694 -0.4921875,0.351563 -0.2227037,0.143869 -0.4878001,0.317895 -0.7148438,0.59375 -0.2270437,0.275855 -0.3955205,0.666224 -0.4003906,1.119141 -0.00477,0.443794 0.1426545,0.832716 0.3632813,1.099609 0.2206267,0.266893 0.4809665,0.417212 0.6894531,0.541015 0.2084866,0.123804 0.3685781,0.223376 0.4550781,0.3125 0.0865,0.08912 0.1268445,0.145119 0.1367188,0.337891 0.02326,0.454102 -0.054694,0.698383 -0.1640626,0.884766 -0.1093681,0.186383 -0.2753752,0.334109 -0.5019531,0.515625 -0.2265779,0.181515 -0.5145898,0.391171 -0.7539062,0.726562 -0.2393165,0.335391 -0.4009771,0.791925 -0.4082031,1.359375 -0.0056,0.439361 0.1954802,0.81168 0.4277343,1.091797 0.2322541,0.280117 0.5025738,0.500012 0.7480469,0.710938 0.2454731,0.210925 0.4654846,0.411522 0.6015625,0.59375 0.1360779,0.182227 0.1900095,0.321013 0.1835937,0.498046 -0.00584,0.161225 -0.055648,0.268572 -0.1796874,0.417969 -0.1240398,0.149398 -0.324732,0.316276 -0.5566407,0.50586 -0.4638174,0.379168 -1.1001039,0.916831 -1.15625,1.816406 -0.060106,0.963021 0.6497691,1.682023 1.2597657,2.226562 C 8.6373403,32.550399 9.25,32.919922 9.25,32.919922 l 0.5488281,-0.90625 c 0,0 -0.5422153,-0.328934 -1.0664062,-0.796875 C 8.208231,30.748856 7.805756,30.141514 7.8242188,29.845703 7.8517317,29.404889 8.1418866,29.152599 8.59375,28.783203 8.8196817,28.598505 9.0728392,28.400296 9.2949219,28.132812 9.5170045,27.865329 9.7033373,27.503416 9.71875,27.078125 9.7353967,26.61878 9.5539107,26.215793 9.3242188,25.908203 9.0945268,25.600614 8.8189726,25.361552 8.5664062,25.144531 8.3138399,24.927511 8.0828984,24.731198 7.9414062,24.560547 7.7999141,24.389896 7.7562981,24.277124 7.7578125,24.158203 7.7627907,23.767268 7.8461214,23.572249 7.96875,23.400391 8.0913786,23.228532 8.2806532,23.0777 8.5214844,22.884766 8.7623156,22.691831 9.0561624,22.451729 9.2753906,22.078125 9.4946188,21.704521 9.6152176,21.215229 9.5839844,20.605469 9.5623304,20.182723 9.3800602,19.820622 9.1503906,19.583984 8.920721,19.347347 8.6706959,19.214097 8.4746094,19.097656 8.2785228,18.981216 8.1386122,18.883089 8.0625,18.791016 7.9863878,18.698943 7.9388455,18.617038 7.9414062,18.378906 7.9438687,18.149897 7.9994388,18.041628 8.0996094,17.919922 8.19978,17.798216 8.366016,17.676209 8.5722656,17.542969 8.7785153,17.409729 9.0232913,17.271539 9.2480469,17.041016 9.4728024,16.810493 9.6595691,16.440988 9.6425781,16.033203 9.6262066,15.640287 9.4544803,15.303935 9.25,15.0625 9.0455197,14.821065 8.8153645,14.652421 8.6171875,14.501953 8.4190105,14.351485 8.2511151,14.217901 8.15625,14.105469 8.0613849,13.993036 8.0310588,13.928014 8.0292969,13.804688 c -0.00397,-0.277816 0.1845463,-0.50959 0.453125,-0.707032 0.2685786,-0.197441 0.5449218,-0.298828 0.5449219,-0.298828 z"
       id="path6640"
       inkscape:connector-curvature="0" />
    <path
       style="color:#000000;font-style:normal;font-variant:normal;font-weight:normal;font-stretch:normal;font-size:medium;line-height:normal;font-family:sans-serif;font-variant-ligatures:normal;font-variant-position:normal;font-variant-caps:normal;font-variant-numeric:normal;font-variant-alternates:normal;font-feature-settings:normal;text-indent:0;text-align:start;text-decoration:none;text-decoration-line:none;text-decoration-style:solid;text-decoration-color:#000000;letter-spacing:normal;word-spacing:normal;text-transform:none;writing-mode:lr-tb;direction:ltr;text-orientation:mixed;dominant-baseline:auto;baseline-shift:baseline;text-anchor:start;white-space:normal;shape-padding:0;clip-rule:nonzero;display:inline;overflow:visible;visibility:visible;opacity:1;isolation:auto;mix-blend-mode:normal;color-interpolation:sRGB;color-interpolation-filters:linearRGB;solid-color:#000000;solid-opacity:1;vector-effect:none;fill:#ffcc00;fill-opacity:1;fill-rule:nonzero;stroke:none;stroke-width:1.05833328;stroke-linecap:butt;stroke-linejoin:miter;stroke-miterlimit:4;stroke-dasharray:none;stroke-dashoffset:0;stroke-opacity:1;color-rendering:auto;image-rendering:auto;shape-rendering:auto;text-rendering:auto;enable-background:accumulate"
       d="m 8.1582031,11.796875 c 0,0 -0.3995942,0.125783 -0.8027343,0.414063 -0.4031402,0.288279 -0.879727,0.80779 -0.8691407,1.548828 0.00552,0.3861 0.165441,0.722994 0.359375,0.966796 0.193934,0.243803 0.4150837,0.418638 0.6074219,0.576172 0.3846764,0.315069 0.591941,0.4976 0.6035156,0.775391 0.00501,0.120158 -0.00791,0.134563 -0.095703,0.224609 -0.087794,0.09005 -0.2694839,0.207694 -0.4921875,0.351563 -0.2227036,0.143869 -0.4878,0.317895 -0.7148438,0.59375 -0.2270437,0.275855 -0.3955205,0.666224 -0.4003906,1.119141 -0.00477,0.443794 0.1426545,0.832716 0.3632813,1.099609 0.2206267,0.266893 0.4809665,0.417212 0.6894531,0.541015 0.2084866,0.123804 0.3685782,0.223376 0.4550781,0.3125 0.0865,0.08912 0.1268446,0.145119 0.1367188,0.337891 0.02326,0.454102 -0.054694,0.698383 -0.1640625,0.884766 -0.1093681,0.186383 -0.2753753,0.334109 -0.5019532,0.515625 -0.2265778,0.181515 -0.5145898,0.391171 -0.7539062,0.726562 -0.2393164,0.335391 -0.4009771,0.791925 -0.4082031,1.359375 -0.0056,0.439361 0.1954802,0.81168 0.4277343,1.091797 0.2322542,0.280117 0.5045269,0.500012 0.75,0.710938 0.2454732,0.210925 0.4635316,0.411522 0.5996094,0.59375 0.1360779,0.182227 0.1900095,0.321013 0.1835938,0.498046 -0.00584,0.161225 -0.055648,0.268572 -0.1796875,0.417969 -0.1240398,0.149398 -0.324732,0.316276 -0.5566407,0.50586 -0.4638173,0.379168 -1.1001038,0.916831 -1.15625,1.816406 -0.060106,0.963021 0.6497692,1.682023 1.2597657,2.226562 0.6099965,0.54454 1.2226562,0.914063 1.2226562,0.914063 l 0.5488281,-0.90625 c 0,0 -0.5422153,-0.328934 -1.0664062,-0.796875 -0.524191,-0.467941 -0.926666,-1.075283 -0.9082032,-1.371094 0.027513,-0.440814 0.3176678,-0.693104 0.7695312,-1.0625 C 8.2903848,28.598505 8.5435423,28.400296 8.765625,28.132812 8.9877077,27.865329 9.1740405,27.503416 9.1894531,27.078125 9.2060998,26.61878 9.0246139,26.215793 8.7949219,25.908203 8.5652299,25.600614 8.2896757,25.361552 8.0371094,25.144531 7.7845431,24.927511 7.5536016,24.731198 7.4121094,24.560547 7.2706172,24.389896 7.2270012,24.277124 7.2285156,24.158203 7.2334939,23.767268 7.3187776,23.572249 7.4414062,23.400391 7.5640349,23.228532 7.7533094,23.0777 7.9941406,22.884766 8.2349718,22.691831 8.5268655,22.451729 8.7460938,22.078125 8.965322,21.704521 9.0859207,21.215229 9.0546875,20.605469 9.0330336,20.182723 8.8507633,19.820622 8.6210938,19.583984 8.3914242,19.347347 8.141399,19.214097 7.9453125,19.097656 7.749226,18.981216 7.6093153,18.883089 7.5332031,18.791016 7.4570909,18.698943 7.4095487,18.617038 7.4121094,18.378906 7.4145718,18.149897 7.4701419,18.041628 7.5703125,17.919922 7.6704831,17.798216 7.8367191,17.676209 8.0429688,17.542969 8.2492184,17.409729 8.4939945,17.271539 8.71875,17.041016 8.9435055,16.810493 9.1302722,16.440988 9.1132812,16.033203 9.0808607,15.25511 8.5102395,14.799905 8.125,14.484375 7.9323802,14.32661 7.7705659,14.187517 7.6757812,14.068359 7.5809966,13.949202 7.5467388,13.87327 7.5449219,13.746094 7.540843,13.460577 7.7175813,13.253269 7.9707031,13.072266 8.2238249,12.891262 8.4824219,12.804688 8.4824219,12.804688 Z"
       id="path6627"
       inkscape:connector-curvature="0" />
    <path
       style="color:#000000;font-style:normal;font-variant:normal;font-weight:normal;font-stretch:normal;font-size:medium;line-height:normal;font-family:sans-serif;font-variant-ligatures:normal;font-variant-position:normal;font-variant-caps:normal;font-variant-numeric:normal;font-variant-alternates:normal;font-feature-settings:normal;text-indent:0;text-align:start;text-decoration:none;text-decoration-line:none;text-decoration-style:solid;text-decoration-color:#000000;letter-spacing:normal;word-spacing:normal;text-transform:none;writing-mode:lr-tb;direction:ltr;text-orientation:mixed;dominant-baseline:auto;baseline-shift:baseline;text-anchor:start;white-space:normal;shape-padding:0;clip-rule:nonzero;display:inline;overflow:visible;visibility:visible;opacity:1;isolation:auto;mix-blend-mode:normal;color-interpolation:sRGB;color-interpolation-filters:linearRGB;solid-color:#000000;solid-opacity:1;vector-effect:none;fill:#f1c100;fill-opacity:1;fill-rule:nonzero;stroke:none;stroke-width:1.05833328;stroke-linecap:butt;stroke-linejoin:miter;stroke-miterlimit:4;stroke-dasharray:none;stroke-dashoffset:0;stroke-opacity:1;color-rendering:auto;image-rendering:auto;shape-rendering:auto;text-rendering:auto;enable-background:accumulate"
       d="m 13.322266,10.585938 c 0,0 -0.406726,0.140235 -0.816407,0.441406 -0.409681,0.301171 -0.895461,0.82548 -0.884765,1.574218 0.0056,0.389952 0.17485,0.729222 0.376953,0.96875 0.202103,0.239529 0.429174,0.406475 0.626953,0.556641 0.197779,0.150166 0.365024,0.284484 0.464844,0.402344 0.09982,0.117859 0.138905,0.195051 0.144531,0.330078 0.005,0.120158 -0.0079,0.134563 -0.0957,0.224609 -0.08779,0.09005 -0.269484,0.209647 -0.492188,0.353516 -0.222703,0.143869 -0.487799,0.317895 -0.714843,0.59375 -0.227045,0.275855 -0.393568,0.666224 -0.398438,1.119141 -0.0048,0.443794 0.140701,0.830763 0.361328,1.097656 0.220627,0.266893 0.480966,0.419165 0.689453,0.542969 0.208487,0.123804 0.368578,0.223375 0.455078,0.3125 0.0865,0.08912 0.126845,0.145118 0.136719,0.33789 0.02326,0.454102 -0.05469,0.69643 -0.164062,0.882813 -0.109368,0.186383 -0.275375,0.336062 -0.501953,0.517578 -0.226578,0.181516 -0.512637,0.391172 -0.751954,0.726562 -0.239316,0.335391 -0.40293,0.791925 -0.410156,1.359375 -0.0056,0.439361 0.19548,0.81168 0.427735,1.091797 0.232254,0.280118 0.504526,0.500012 0.75,0.710938 0.245473,0.210926 0.463531,0.411523 0.599609,0.59375 0.136078,0.182227 0.191963,0.321013 0.185547,0.498047 -0.0058,0.161225 -0.0576,0.268571 -0.181641,0.417968 -0.124039,0.149398 -0.324732,0.316276 -0.55664,0.50586 -0.463818,0.379168 -1.100104,0.916831 -1.15625,1.816406 -0.06011,0.963021 0.651722,1.682023 1.261718,2.226562 0.609997,0.54454 1.222657,0.914063 1.222657,0.914063 l 0.546875,-0.90625 c 0,0 -0.542216,-0.328934 -1.066407,-0.796875 -0.524191,-0.467941 -0.926666,-1.075283 -0.908203,-1.371094 0.02751,-0.440814 0.317668,-0.695057 0.769532,-1.064453 0.225931,-0.184698 0.479089,-0.380954 0.701171,-0.648437 0.222083,-0.267484 0.408416,-0.629397 0.423829,-1.054688 0.01665,-0.459345 -0.16484,-0.862332 -0.394532,-1.169922 -0.229692,-0.307589 -0.505246,-0.546651 -0.757812,-0.763672 -0.252567,-0.21702 -0.481555,-0.413333 -0.623047,-0.583984 -0.141492,-0.170651 -0.187062,-0.283423 -0.185547,-0.402344 0.005,-0.390935 0.09026,-0.585954 0.212891,-0.757812 0.122628,-0.171859 0.311903,-0.322691 0.552734,-0.515625 0.240831,-0.192934 0.532725,-0.433036 0.751953,-0.806641 0.219228,-0.373604 0.339827,-0.862896 0.308594,-1.472656 -0.02165,-0.422747 -0.203924,-0.7868 -0.433594,-1.023438 -0.22967,-0.236637 -0.479694,-0.367934 -0.675781,-0.484375 -0.196087,-0.11644 -0.335998,-0.214568 -0.412109,-0.30664 -0.07611,-0.09207 -0.123656,-0.173978 -0.121094,-0.41211 0.0025,-0.229008 0.05803,-0.337278 0.158203,-0.458984 0.100171,-0.121706 0.266406,-0.243713 0.472656,-0.376953 0.20625,-0.13324 0.451026,-0.27143 0.675781,-0.501953 0.224756,-0.230524 0.411525,-0.600028 0.394532,-1.007813 -0.01637,-0.392915 -0.188099,-0.731221 -0.392578,-0.972656 -0.20448,-0.241435 -0.434636,-0.410079 -0.632813,-0.560547 -0.198177,-0.150468 -0.364119,-0.282098 -0.458984,-0.394531 -0.09487,-0.112433 -0.127144,-0.179408 -0.128907,-0.302734 -0.004,-0.277816 0.1865,-0.507637 0.455078,-0.705079 0.268579,-0.197441 0.542969,-0.298828 0.542969,-0.298828 z"
       id="path6642"
       inkscape:connector-curvature="0" />
    <path
       style="color:#000000;font-style:normal;font-variant:normal;font-weight:normal;font-stretch:normal;font-size:medium;line-height:normal;font-family:sans-serif;font-variant-ligatures:normal;font-variant-position:normal;font-variant-caps:normal;font-variant-numeric:normal;font-variant-alternates:normal;font-feature-settings:normal;text-indent:0;text-align:start;text-decoration:none;text-decoration-line:none;text-decoration-style:solid;text-decoration-color:#000000;letter-spacing:normal;word-spacing:normal;text-transform:none;writing-mode:lr-tb;direction:ltr;text-orientation:mixed;dominant-baseline:auto;baseline-shift:baseline;text-anchor:start;white-space:normal;shape-padding:0;clip-rule:nonzero;display:inline;overflow:visible;visibility:visible;opacity:1;isolation:auto;mix-blend-mode:normal;color-interpolation:sRGB;color-interpolation-filters:linearRGB;solid-color:#000000;solid-opacity:1;vector-effect:none;fill:#ffcc00;fill-opacity:1;fill-rule:nonzero;stroke:none;stroke-width:1.05833328;stroke-linecap:butt;stroke-linejoin:miter;stroke-miterlimit:4;stroke-dasharray:none;stroke-dashoffset:0;stroke-opacity:1;color-rendering:auto;image-rendering:auto;shape-rendering:auto;text-rendering:auto;enable-background:accumulate"
       d="m 12.792969,10.585938 c 0,0 -0.406726,0.140235 -0.816407,0.441406 -0.40968,0.301171 -0.895461,0.82548 -0.884765,1.574218 0.0056,0.389951 0.17485,0.729222 0.376953,0.96875 0.202103,0.239529 0.429174,0.406475 0.626953,0.556641 0.197779,0.150166 0.365024,0.284484 0.464844,0.402344 0.09982,0.117859 0.138905,0.195051 0.144531,0.330078 0.005,0.120158 -0.0079,0.134562 -0.0957,0.224609 -0.08779,0.09005 -0.269484,0.209647 -0.492187,0.353516 -0.222704,0.143869 -0.487801,0.317895 -0.714844,0.59375 -0.227043,0.275855 -0.393568,0.666224 -0.398438,1.119141 -0.0048,0.443794 0.140702,0.830763 0.361328,1.097656 0.220627,0.266893 0.480967,0.419165 0.689454,0.542969 0.208486,0.123804 0.368577,0.223375 0.455078,0.3125 0.0865,0.08912 0.126844,0.145118 0.136718,0.33789 0.02326,0.454102 -0.05469,0.69643 -0.164062,0.882813 -0.109368,0.186383 -0.275375,0.336062 -0.501953,0.517578 -0.226578,0.181516 -0.512637,0.391171 -0.751953,0.726562 -0.239317,0.335391 -0.402931,0.791925 -0.410157,1.359375 -0.0056,0.439361 0.197434,0.81168 0.429688,1.091797 0.232254,0.280118 0.502574,0.500012 0.748047,0.710938 0.245473,0.210926 0.463531,0.411522 0.599609,0.59375 0.136078,0.182227 0.191963,0.321013 0.185547,0.498047 -0.0058,0.161224 -0.0576,0.268571 -0.181641,0.417968 -0.124039,0.149398 -0.324731,0.316276 -0.55664,0.50586 -0.463818,0.379168 -1.100104,0.916831 -1.15625,1.816406 -0.06011,0.963021 0.651722,1.682023 1.261719,2.226562 0.609996,0.54454 1.222656,0.914063 1.222656,0.914063 l 0.546875,-0.90625 c 0,0 -0.542216,-0.328934 -1.066407,-0.796875 -0.52419,-0.467941 -0.926666,-1.075283 -0.908203,-1.371094 0.02751,-0.440813 0.317668,-0.695057 0.769532,-1.064453 0.225931,-0.184698 0.479089,-0.380954 0.701171,-0.648437 0.222083,-0.267484 0.408416,-0.629397 0.423829,-1.054688 0.01665,-0.459345 -0.162886,-0.862332 -0.392579,-1.169922 -0.229692,-0.307589 -0.507199,-0.546651 -0.759765,-0.763672 -0.252566,-0.21702 -0.481555,-0.413333 -0.623047,-0.583984 -0.141492,-0.170651 -0.187061,-0.283422 -0.185547,-0.402344 0.005,-0.390935 0.09026,-0.585954 0.212891,-0.757812 0.122628,-0.171859 0.311903,-0.322691 0.552734,-0.515625 0.240831,-0.192934 0.532725,-0.433036 0.751953,-0.806641 0.219228,-0.373604 0.339827,-0.862896 0.308594,-1.472656 -0.02165,-0.422747 -0.203924,-0.7868 -0.433594,-1.023438 -0.22967,-0.236637 -0.479694,-0.367934 -0.675781,-0.484375 -0.196087,-0.11644 -0.335998,-0.214568 -0.412109,-0.30664 -0.07611,-0.09207 -0.123656,-0.173978 -0.121094,-0.41211 0.0025,-0.229009 0.05803,-0.337278 0.158203,-0.458984 0.10017,-0.121706 0.266407,-0.243713 0.472656,-0.376953 0.206249,-0.13324 0.451026,-0.271431 0.675782,-0.501953 0.224755,-0.230523 0.41152,-0.600029 0.394531,-1.007813 -0.01637,-0.392915 -0.188099,-0.731221 -0.392578,-0.972656 -0.20448,-0.241435 -0.434636,-0.410079 -0.632813,-0.560547 -0.198177,-0.150468 -0.364119,-0.282098 -0.458984,-0.394531 -0.09487,-0.112433 -0.125191,-0.179408 -0.126953,-0.302734 -0.004,-0.277816 0.184546,-0.507637 0.453125,-0.705079 0.268578,-0.197441 0.542968,-0.298828 0.542968,-0.298828 z"
       id="path6644"
       inkscape:connector-curvature="0" />
    <path
       style="color:#000000;font-style:normal;font-variant:normal;font-weight:normal;font-stretch:normal;font-size:medium;line-height:normal;font-family:sans-serif;font-variant-ligatures:normal;font-variant-position:normal;font-variant-caps:normal;font-variant-numeric:normal;font-variant-alternates:normal;font-feature-settings:normal;text-indent:0;text-align:start;text-decoration:none;text-decoration-line:none;text-decoration-style:solid;text-decoration-color:#000000;letter-spacing:normal;word-spacing:normal;text-transform:none;writing-mode:lr-tb;direction:ltr;text-orientation:mixed;dominant-baseline:auto;baseline-shift:baseline;text-anchor:start;white-space:normal;shape-padding:0;clip-rule:nonzero;display:inline;overflow:visible;visibility:visible;opacity:1;isolation:auto;mix-blend-mode:normal;color-interpolation:sRGB;color-interpolation-filters:linearRGB;solid-color:#000000;solid-opacity:1;vector-effect:none;fill:#f1c100;fill-opacity:1;fill-rule:nonzero;stroke:none;stroke-width:1.05833328;stroke-linecap:butt;stroke-linejoin:miter;stroke-miterlimit:4;stroke-dasharray:none;stroke-dashoffset:0;stroke-opacity:1;color-rendering:auto;image-rendering:auto;shape-rendering:auto;text-rendering:auto;enable-background:accumulate"
       d="m 25.732422,12.271484 -0.480469,0.941407 c 0,0 0.259525,0.136342 0.5,0.367187 0.240475,0.230845 0.39766,0.48485 0.357422,0.759766 -0.01786,0.122038 -0.05727,0.182178 -0.166016,0.28125 -0.108743,0.09907 -0.291672,0.20875 -0.507812,0.332031 -0.21614,0.123281 -0.464942,0.261965 -0.699219,0.474609 -0.234276,0.212645 -0.450003,0.524702 -0.517578,0.91211 -0.07013,0.402067 0.06706,0.790912 0.259766,1.048828 0.192705,0.257916 0.416445,0.428842 0.603515,0.58789 0.187071,0.159049 0.336514,0.301795 0.419922,0.435547 0.08341,0.133753 0.123187,0.247243 0.0957,0.47461 -0.02858,0.236424 -0.08438,0.313194 -0.171875,0.394531 -0.08749,0.08134 -0.24155,0.158228 -0.451172,0.248047 -0.209621,0.08982 -0.471845,0.187981 -0.730468,0.392578 -0.258623,0.204597 -0.487743,0.540739 -0.564453,0.957031 -0.110646,0.600451 -0.05525,1.102905 0.113281,1.501953 0.168528,0.399049 0.42707,0.673734 0.640625,0.896485 0.213554,0.22275 0.381349,0.397575 0.480468,0.583984 0.09912,0.186409 0.157478,0.391063 0.111329,0.779297 -0.01404,0.118099 -0.07375,0.224302 -0.236329,0.375 -0.162578,0.150698 -0.414599,0.315891 -0.693359,0.498047 -0.27876,0.182156 -0.585599,0.381313 -0.853515,0.65625 -0.267917,0.274937 -0.499449,0.651793 -0.542969,1.109375 -0.04029,0.423658 0.09798,0.807352 0.283203,1.101562 0.185225,0.294211 0.411469,0.521738 0.611328,0.734375 0.399718,0.425276 0.653373,0.713668 0.623047,1.154297 -0.02035,0.295687 -0.499234,0.846757 -1.080078,1.242188 -0.580844,0.39543 -1.160157,0.65039 -1.160157,0.65039 l 0.423829,0.96875 c 0,0 0.656107,-0.283981 1.332031,-0.74414 0.675923,-0.460159 1.474765,-1.080351 1.541016,-2.042969 0.06189,-0.899199 -0.499864,-1.516599 -0.910157,-1.953125 -0.205146,-0.218263 -0.382874,-0.409894 -0.486328,-0.574219 -0.103454,-0.164325 -0.138322,-0.276894 -0.123047,-0.4375 0.01677,-0.176354 0.08932,-0.30782 0.248047,-0.470703 0.158724,-0.162883 0.400944,-0.330772 0.671875,-0.507812 0.270931,-0.17704 0.569071,-0.36201 0.835938,-0.609375 0.266866,-0.247366 0.51454,-0.589066 0.566406,-1.025391 0.06699,-0.563529 -0.03312,-1.036603 -0.226563,-1.400391 -0.193437,-0.363787 -0.451428,-0.610745 -0.652343,-0.820312 -0.200916,-0.209567 -0.345613,-0.377096 -0.429688,-0.576172 -0.08407,-0.199076 -0.129275,-0.451269 -0.04687,-0.898438 0.03498,-0.189829 0.08228,-0.241302 0.179688,-0.318359 0.0974,-0.07706 0.26931,-0.154501 0.492187,-0.25 0.222877,-0.0955 0.498342,-0.211491 0.751953,-0.447265 0.253611,-0.235775 0.450646,-0.600403 0.503907,-1.041016 0.05436,-0.44967 -0.059,-0.858951 -0.248047,-1.16211 -0.189051,-0.303158 -0.430819,-0.509903 -0.632813,-0.68164 -0.201994,-0.171737 -0.366132,-0.313316 -0.441406,-0.414063 -0.07527,-0.100746 -0.08512,-0.115902 -0.06445,-0.234375 0.02322,-0.133134 0.07118,-0.206741 0.185547,-0.310546 0.114365,-0.103806 0.297965,-0.214857 0.513672,-0.337891 0.215706,-0.123034 0.463642,-0.257685 0.695312,-0.46875 0.23167,-0.211066 0.443521,-0.52623 0.5,-0.912109 0.108445,-0.740921 -0.305062,-1.323659 -0.671875,-1.675782 -0.366813,-0.352123 -0.751953,-0.544922 -0.751953,-0.544922 z"
       id="path6646"
       inkscape:connector-curvature="0" />
    <path
       style="color:#000000;font-style:normal;font-variant:normal;font-weight:normal;font-stretch:normal;font-size:medium;line-height:normal;font-family:sans-serif;font-variant-ligatures:normal;font-variant-position:normal;font-variant-caps:normal;font-variant-numeric:normal;font-variant-alternates:normal;font-feature-settings:normal;text-indent:0;text-align:start;text-decoration:none;text-decoration-line:none;text-decoration-style:solid;text-decoration-color:#000000;letter-spacing:normal;word-spacing:normal;text-transform:none;writing-mode:lr-tb;direction:ltr;text-orientation:mixed;dominant-baseline:auto;baseline-shift:baseline;text-anchor:start;white-space:normal;shape-padding:0;clip-rule:nonzero;display:inline;overflow:visible;visibility:visible;opacity:1;isolation:auto;mix-blend-mode:normal;color-interpolation:sRGB;color-interpolation-filters:linearRGB;solid-color:#000000;solid-opacity:1;vector-effect:none;fill:#ffd42a;fill-opacity:1;fill-rule:nonzero;stroke:none;stroke-width:1.05833328;stroke-linecap:butt;stroke-linejoin:miter;stroke-miterlimit:4;stroke-dasharray:none;stroke-dashoffset:0;stroke-opacity:1;color-rendering:auto;image-rendering:auto;shape-rendering:auto;text-rendering:auto;enable-background:accumulate"
       d="m 26.265625,12.34375 -0.498047,0.935547 c 0,0 0.220906,0.119637 0.427734,0.333984 0.206829,0.214348 0.350287,0.453754 0.306641,0.751953 -0.01957,0.13368 -0.06453,0.204286 -0.166015,0.306641 -0.101481,0.102355 -0.267241,0.215008 -0.466797,0.34375 -0.399114,0.257484 -0.995749,0.640386 -1.126953,1.392578 -0.07013,0.402068 0.06901,0.792866 0.261718,1.050781 0.192705,0.257916 0.416446,0.426889 0.603516,0.585938 0.187069,0.159049 0.334561,0.301795 0.417969,0.435547 0.08341,0.133752 0.12514,0.249195 0.09766,0.476562 -0.02858,0.236424 -0.08634,0.311241 -0.173828,0.392578 -0.08749,0.08134 -0.239598,0.160182 -0.449219,0.25 -0.209621,0.08982 -0.473799,0.187982 -0.732422,0.392579 -0.258623,0.204596 -0.487742,0.540739 -0.564453,0.957031 -0.110645,0.600451 -0.05525,1.100951 0.113281,1.5 0.168528,0.399048 0.429024,0.675687 0.642578,0.898437 0.213555,0.222751 0.38135,0.395622 0.480469,0.582032 0.09912,0.186409 0.157478,0.393015 0.111328,0.78125 -0.01404,0.118099 -0.07375,0.222348 -0.236328,0.373046 -0.162578,0.150699 -0.416553,0.315891 -0.695312,0.498047 -0.27876,0.182156 -0.583646,0.383266 -0.851563,0.658203 -0.267916,0.274938 -0.499448,0.649841 -0.542969,1.107422 -0.04029,0.423658 0.09602,0.807352 0.28125,1.101563 0.185226,0.29421 0.411469,0.52369 0.611329,0.736328 0.399718,0.425275 0.655326,0.713667 0.625,1.154297 C 24.721838,30.63553 24.241,31.184648 23.660156,31.580078 23.079312,31.975509 22.5,32.232422 22.5,32.232422 l 0.425781,0.96875 c 0,0 0.654155,-0.285935 1.330078,-0.746094 0.675924,-0.460159 1.474766,-1.08035 1.541016,-2.042969 0.06189,-0.899198 -0.49791,-1.514646 -0.908203,-1.951171 -0.205147,-0.218263 -0.382874,-0.409894 -0.486328,-0.574219 -0.103454,-0.164325 -0.140276,-0.278847 -0.125,-0.439453 0.01677,-0.176355 0.08932,-0.305868 0.248047,-0.46875 0.158723,-0.162883 0.402897,-0.332726 0.673828,-0.509766 0.270931,-0.17704 0.567117,-0.360056 0.833984,-0.607422 0.266867,-0.247365 0.516494,-0.589066 0.568359,-1.02539 0.06699,-0.563529 -0.03508,-1.038557 -0.228515,-1.402344 -0.193437,-0.363788 -0.449475,-0.608792 -0.650391,-0.81836 -0.200915,-0.209567 -0.345612,-0.379048 -0.429687,-0.578125 -0.08407,-0.199076 -0.131228,-0.449316 -0.04883,-0.896484 0.03498,-0.189829 0.08228,-0.241303 0.179687,-0.318359 0.0974,-0.07706 0.26931,-0.154502 0.492188,-0.25 0.222877,-0.0955 0.500295,-0.211492 0.753906,-0.447266 0.253611,-0.235774 0.450646,-0.600403 0.503906,-1.041016 0.05436,-0.449669 -0.06095,-0.85895 -0.25,-1.162109 -0.189049,-0.303159 -0.428866,-0.511856 -0.630859,-0.683594 -0.201994,-0.171737 -0.366132,-0.313315 -0.441407,-0.414062 -0.07527,-0.100748 -0.08707,-0.115901 -0.06641,-0.234375 0.05039,-0.28889 0.259617,-0.42645 0.658203,-0.683594 0.199294,-0.128572 0.430346,-0.27225 0.644532,-0.488281 0.214185,-0.216032 0.406161,-0.526153 0.460937,-0.900391 C 27.653859,13.799942 27.291491,13.22553 26.957025,12.878906 26.62256,12.532283 26.265619,12.34375 26.265619,12.34375 Z"
       id="path6648"
       inkscape:connector-curvature="0" />
    <path
       style="color:#000000;font-style:normal;font-variant:normal;font-weight:normal;font-stretch:normal;font-size:medium;line-height:normal;font-family:sans-serif;font-variant-ligatures:normal;font-variant-position:normal;font-variant-caps:normal;font-variant-numeric:normal;font-variant-alternates:normal;font-feature-settings:normal;text-indent:0;text-align:start;text-decoration:none;text-decoration-line:none;text-decoration-style:solid;text-decoration-color:#000000;letter-spacing:normal;word-spacing:normal;text-transform:none;writing-mode:lr-tb;direction:ltr;text-orientation:mixed;dominant-baseline:auto;baseline-shift:baseline;text-anchor:start;white-space:normal;shape-padding:0;clip-rule:nonzero;display:inline;overflow:visible;visibility:visible;opacity:1;isolation:auto;mix-blend-mode:normal;color-interpolation:sRGB;color-interpolation-filters:linearRGB;solid-color:#000000;solid-opacity:1;vector-effect:none;fill:#f1c100;fill-opacity:1;fill-rule:nonzero;stroke:none;stroke-width:1.05833328;stroke-linecap:butt;stroke-linejoin:miter;stroke-miterlimit:4;stroke-dasharray:none;stroke-dashoffset:0;stroke-opacity:1;color-rendering:auto;image-rendering:auto;shape-rendering:auto;text-rendering:auto;enable-background:accumulate"
       d="m 22.550781,9.96875 -0.482422,0.943359 c 0,0 0.259525,0.13439 0.5,0.365235 0.240475,0.230845 0.39766,0.48485 0.357422,0.759765 -0.01786,0.122038 -0.05727,0.184131 -0.166015,0.283203 -0.108744,0.09907 -0.28972,0.208751 -0.50586,0.332032 -0.21614,0.123281 -0.466895,0.260012 -0.701172,0.472656 -0.234276,0.212644 -0.450003,0.524702 -0.517578,0.912109 -0.07013,0.402068 0.06901,0.792865 0.261719,1.050782 0.192705,0.257916 0.416445,0.426888 0.603516,0.585937 0.18707,0.159049 0.33456,0.301795 0.417968,0.435547 0.08341,0.133752 0.125141,0.247243 0.09766,0.474609 -0.02858,0.236424 -0.08634,0.313194 -0.173828,0.394532 -0.08749,0.08134 -0.239598,0.158228 -0.449219,0.248046 -0.209621,0.08982 -0.473799,0.189935 -0.732422,0.394532 -0.258623,0.204596 -0.487743,0.538786 -0.564453,0.955078 -0.110645,0.600451 -0.05525,1.102905 0.113281,1.501953 0.168528,0.399048 0.429023,0.673734 0.642578,0.896484 0.213555,0.222751 0.381349,0.397576 0.480469,0.583985 0.09912,0.186409 0.157478,0.393016 0.111328,0.78125 -0.01404,0.118099 -0.07375,0.222348 -0.236328,0.373047 -0.162579,0.150698 -0.416553,0.315891 -0.695313,0.498047 -0.278759,0.182155 -0.583645,0.381312 -0.851562,0.65625 -0.267917,0.274937 -0.499448,0.651793 -0.542969,1.109374 -0.04029,0.423658 0.09603,0.807353 0.28125,1.101563 0.185225,0.29421 0.411469,0.52369 0.611328,0.736328 0.399719,0.425276 0.655326,0.713668 0.625,1.154297 -0.02035,0.295687 -0.501187,0.844804 -1.082031,1.240234 -0.580844,0.395431 -1.160156,0.650391 -1.160156,0.650391 l 0.425781,0.970703 c 0,0 0.654155,-0.285935 1.330078,-0.746094 0.675924,-0.460159 1.474766,-1.08035 1.541016,-2.042968 0.06189,-0.899199 -0.497911,-1.516599 -0.908203,-1.953125 -0.205147,-0.218263 -0.382875,-0.409894 -0.486329,-0.574219 -0.103453,-0.164325 -0.140275,-0.276894 -0.125,-0.4375 0.01677,-0.176354 0.08932,-0.305867 0.248047,-0.46875 0.158724,-0.162883 0.402897,-0.332726 0.673829,-0.509766 0.270931,-0.17704 0.567117,-0.362009 0.833984,-0.609375 0.266867,-0.247365 0.516494,-0.589066 0.568359,-1.02539 0.06699,-0.563529 -0.03508,-1.036604 -0.228515,-1.400391 -0.193438,-0.363787 -0.449475,-0.610745 -0.650391,-0.820312 -0.200916,-0.209568 -0.345613,-0.377096 -0.429687,-0.576172 -0.08407,-0.199077 -0.131228,-0.449317 -0.04883,-0.896485 0.03498,-0.189829 0.08228,-0.241302 0.179688,-0.318359 0.09741,-0.07706 0.271263,-0.156455 0.494141,-0.251953 0.222877,-0.0955 0.498342,-0.209539 0.751953,-0.445313 0.253611,-0.235774 0.450646,-0.602355 0.503906,-1.042968 0.05436,-0.44967 -0.06095,-0.858951 -0.25,-1.16211 -0.18905,-0.303158 -0.428865,-0.509903 -0.630859,-0.68164 -0.201995,-0.171738 -0.366133,-0.313317 -0.441407,-0.414063 -0.07527,-0.100746 -0.08707,-0.115902 -0.06641,-0.234375 0.02322,-0.133134 0.07118,-0.206742 0.185547,-0.310547 0.114365,-0.103805 0.297965,-0.214857 0.513672,-0.337891 0.215707,-0.123033 0.463642,-0.257684 0.695312,-0.46875 0.23167,-0.211065 0.443521,-0.524276 0.5,-0.910156 0.108445,-0.74092 -0.303109,-1.325611 -0.669922,-1.677734 C 22.935922,10.161549 22.550781,9.96875 22.550781,9.96875 Z"
       id="path6650"
       inkscape:connector-curvature="0" />
    <path
       style="color:#000000;font-style:normal;font-variant:normal;font-weight:normal;font-stretch:normal;font-size:medium;line-height:normal;font-family:sans-serif;font-variant-ligatures:normal;font-variant-position:normal;font-variant-caps:normal;font-variant-numeric:normal;font-variant-alternates:normal;font-feature-settings:normal;text-indent:0;text-align:start;text-decoration:none;text-decoration-line:none;text-decoration-style:solid;text-decoration-color:#000000;letter-spacing:normal;word-spacing:normal;text-transform:none;writing-mode:lr-tb;direction:ltr;text-orientation:mixed;dominant-baseline:auto;baseline-shift:baseline;text-anchor:start;white-space:normal;shape-padding:0;clip-rule:nonzero;display:inline;overflow:visible;visibility:visible;opacity:1;isolation:auto;mix-blend-mode:normal;color-interpolation:sRGB;color-interpolation-filters:linearRGB;solid-color:#000000;solid-opacity:1;vector-effect:none;fill:#ffd42a;fill-opacity:1;fill-rule:nonzero;stroke:none;stroke-width:1.05833328;stroke-linecap:butt;stroke-linejoin:miter;stroke-miterlimit:4;stroke-dasharray:none;stroke-dashoffset:0;stroke-opacity:1;color-rendering:auto;image-rendering:auto;shape-rendering:auto;text-rendering:auto;enable-background:accumulate"
       d="m 23.074219,10.037109 -0.480469,0.94336 c 0,0 0.259525,0.136342 0.5,0.367187 0.240475,0.230845 0.39766,0.482897 0.357422,0.757813 -0.01786,0.122038 -0.05727,0.184131 -0.166016,0.283203 -0.108743,0.09907 -0.289719,0.20875 -0.505859,0.332031 -0.21614,0.123281 -0.466896,0.260012 -0.701172,0.472656 -0.234276,0.212645 -0.450003,0.524703 -0.517578,0.91211 -0.07013,0.402067 0.06706,0.792865 0.259765,1.050781 0.192705,0.257916 0.416447,0.426889 0.603516,0.585938 0.18707,0.159048 0.336515,0.303748 0.419922,0.4375 0.08341,0.133751 0.123187,0.247241 0.0957,0.474609 -0.02858,0.236424 -0.08438,0.311241 -0.171875,0.392578 -0.08749,0.08134 -0.239598,0.160182 -0.449219,0.25 -0.209621,0.08982 -0.473798,0.187982 -0.732421,0.392578 -0.258624,0.204597 -0.487743,0.54074 -0.564454,0.957031 -0.110645,0.600451 -0.05525,1.100952 0.113282,1.5 0.168528,0.399049 0.42707,0.675688 0.640625,0.898438 0.213554,0.22275 0.381349,0.397575 0.480468,0.583984 0.09912,0.186409 0.159431,0.391063 0.113282,0.779297 -0.01404,0.118099 -0.07375,0.222349 -0.236329,0.373047 -0.162578,0.150698 -0.416552,0.317844 -0.695312,0.5 -0.27876,0.182156 -0.583646,0.381313 -0.851562,0.65625 -0.267917,0.274937 -0.499448,0.64984 -0.542969,1.107422 -0.04029,0.423658 0.09602,0.807352 0.28125,1.101562 0.185225,0.294211 0.411469,0.523691 0.611328,0.736328 0.399718,0.425276 0.653373,0.713668 0.623047,1.154297 -0.02035,0.295687 -0.499234,0.844804 -1.080078,1.240235 -0.580844,0.39543 -1.160157,0.652343 -1.160157,0.652344 l 0.423829,0.96875 c 0,0 0.656107,-0.285935 1.332031,-0.746094 0.675923,-0.460159 1.474765,-1.080351 1.541015,-2.042969 0.06189,-0.899199 -0.49791,-1.514646 -0.908203,-1.951172 -0.205146,-0.218263 -0.382874,-0.409893 -0.486328,-0.574219 -0.103454,-0.164325 -0.140275,-0.276893 -0.125,-0.4375 0.01677,-0.176354 0.08932,-0.30782 0.248047,-0.470703 0.158724,-0.162883 0.400944,-0.332725 0.671875,-0.509765 0.270931,-0.17704 0.569071,-0.360057 0.835937,-0.607422 0.266867,-0.247366 0.516494,-0.589066 0.56836,-1.025391 0.06699,-0.563529 -0.03508,-1.038556 -0.228516,-1.402344 C 22.997969,20.767072 22.739978,20.522067 22.539062,20.3125 22.338147,20.102933 22.19345,19.933452 22.109375,19.734375 22.0253,19.535298 21.9801,19.285059 22.0625,18.837891 c 0.03498,-0.189829 0.08228,-0.241303 0.179688,-0.31836 0.0974,-0.07706 0.26931,-0.154501 0.492187,-0.25 0.222877,-0.0955 0.500295,-0.211491 0.753906,-0.447265 0.253611,-0.235774 0.448693,-0.600403 0.501953,-1.041016 0.05436,-0.449669 -0.059,-0.858951 -0.248046,-1.162109 -0.18905,-0.303159 -0.430819,-0.509904 -0.632813,-0.681641 -0.201994,-0.171737 -0.366132,-0.313315 -0.441406,-0.414062 -0.07527,-0.100748 -0.08512,-0.117855 -0.06445,-0.236329 0.02322,-0.133133 0.07118,-0.204788 0.185546,-0.308593 0.114366,-0.103806 0.297966,-0.214857 0.513672,-0.337891 0.215707,-0.123034 0.463643,-0.257685 0.695313,-0.46875 0.23167,-0.211065 0.44352,-0.52623 0.5,-0.912109 0.108445,-0.740921 -0.305063,-1.323658 -0.671875,-1.675782 -0.366812,-0.352123 -0.751953,-0.546875 -0.751953,-0.546875 z"
       id="path6652"
       inkscape:connector-curvature="0" />
  </g>
</svg>
