<?xml version="1.0" encoding="UTF-8" standalone="no"?>
<!-- Created with Inkscape (http://www.inkscape.org/) -->

<svg
   xmlns:dc="http://purl.org/dc/elements/1.1/"
   xmlns:cc="http://creativecommons.org/ns#"
   xmlns:rdf="http://www.w3.org/1999/02/22-rdf-syntax-ns#"
   xmlns:svg="http://www.w3.org/2000/svg"
   xmlns="http://www.w3.org/2000/svg"
   xmlns:sodipodi="http://sodipodi.sourceforge.net/DTD/sodipodi-0.dtd"
   xmlns:inkscape="http://www.inkscape.org/namespaces/inkscape"
   width="128"
   height="128"
   viewBox="0 0 33.866667 33.866667"
   version="1.1"
   id="svg827"
   inkscape:version="0.92.3 (2405546, 2018-03-11)"
   sodipodi:docname="square_suit_shirt_tie.svg"
   inkscape:export-filename="C:\Users\steve\Documents\ludum-dare-43\assets\square_avatar_1.png"
   inkscape:export-xdpi="96"
   inkscape:export-ydpi="96">
  <defs
     id="defs821" />
  <sodipodi:namedview
     id="base"
     pagecolor="#ffffff"
     bordercolor="#666666"
     borderopacity="1.0"
     inkscape:pageopacity="0.0"
     inkscape:pageshadow="2"
     inkscape:zoom="12.757436"
     inkscape:cx="82.526465"
     inkscape:cy="65.937537"
     inkscape:document-units="mm"
     inkscape:current-layer="layer14"
     showgrid="false"
     units="px"
     width="96px"
     inkscape:window-width="2736"
     inkscape:window-height="1699"
     inkscape:window-x="-13"
     inkscape:window-y="-13"
     inkscape:window-maximized="1"
     showguides="true" />
  <metadata
     id="metadata824">
    <rdf:RDF>
      <cc:Work
         rdf:about="">
        <dc:format>image/svg+xml</dc:format>
        <dc:type
           rdf:resource="http://purl.org/dc/dcmitype/StillImage" />
        <dc:title></dc:title>
      </cc:Work>
    </rdf:RDF>
  </metadata>
  <g
     inkscape:groupmode="layer"
     id="layer14"
     inkscape:label="suit_shirt_tie"
     style="display:inline">
    <path
       style="fill:#ffffff;fill-opacity:1;stroke:none;stroke-width:0.26458332px;stroke-linecap:butt;stroke-linejoin:miter;stroke-opacity:1"
       d="m 14.80803,24.26426 c 0,0 0.725884,0.642926 2.198391,0.663665 1.472507,0.02074 2.59984,-0.663665 2.59984,-0.663665 0,0 5.992744,0.786128 7.624753,2.821194 2.616726,3.262978 0.103697,11.489088 0.103697,11.489088 L 6.5951727,38.63676 c 0,0 -2.5663803,-8.462062 0.1659169,-11.737961 C 8.511797,24.799781 14.80803,24.26426 14.80803,24.26426 Z"
       id="path6444"
       inkscape:connector-curvature="0"
       sodipodi:nodetypes="cscsccsc" />
    <path
       sodipodi:nodetypes="cscscscscscsc"
       inkscape:connector-curvature="0"
       id="path6446"
       d="m 14.80803,24.26426 c 0,0 0.725884,0.642926 2.198391,0.663665 1.472507,0.02074 2.59984,-0.663665 2.59984,-0.663665 0,0 5.992744,0.786128 7.624753,2.821194 2.616726,3.262978 0.103697,11.489088 0.103697,11.489088 0,0 1.370717,-8.012841 -0.717752,-11.060514 -1.456019,-2.124747 -7.010698,-3.249768 -7.010698,-3.249768 0,0 -1.129088,1.051274 -2.55079,1.031473 -1.452392,-0.02023 -2.247441,-1.031473 -2.247441,-1.031473 0,0 -6.0386233,0.9797 -7.622224,3.24132 -2.1311854,3.043654 -0.5906333,11.13118 -0.5906333,11.13118 0,0 -2.5663803,-8.462062 0.1659169,-11.737961 C 8.511797,24.799781 14.80803,24.26426 14.80803,24.26426 Z"
       style="fill:#f3f3f3;fill-opacity:1;stroke:none;stroke-width:0.26458332px;stroke-linecap:butt;stroke-linejoin:miter;stroke-opacity:1" />
    <path
       style="fill:#a02c2c;fill-opacity:1;stroke:none;stroke-width:0.32101664px;stroke-linecap:butt;stroke-linejoin:miter;stroke-opacity:1"
       d="m 16.91144,24.912162 0.640548,-0.0089 1.196438,1.09427 -0.867266,1.53609 -1.289993,0.01779 -0.867266,-1.527196 z"
       id="path6448"
       inkscape:connector-curvature="0"
       sodipodi:nodetypes="ccccccc" />
    <path
       style="fill:#c83737;fill-opacity:1;stroke:none;stroke-width:0.26458332px;stroke-linecap:butt;stroke-linejoin:miter;stroke-opacity:1"
       d="m 16.591167,27.509933 c 0,0 -0.8053,0.797197 -0.809061,2.373545 -0.0037,1.567066 -0.0729,8.098789 -0.0729,8.098789 l 2.910964,0.111246 c 0,0 0.02526,-6.941861 0.01362,-8.189298 -0.01374,-1.472535 -0.752635,-2.412072 -0.752635,-2.412072 z"
       id="path6450"
       inkscape:connector-curvature="0"
       sodipodi:nodetypes="csccscc" />
    <path
       sodipodi:nodetypes="csccscc"
       inkscape:connector-curvature="0"
       id="path6452"
       d="m 16.591167,27.489193 c 0,0 -0.8053,0.817937 -0.809061,2.394285 -0.0037,1.567066 -0.0729,8.098789 -0.0729,8.098789 l 0.286795,0.02829 c 0,0 0.05782,-6.869358 0.07645,-8.11671 0.03811,-2.550991 1.808698,-2.422442 1.808698,-2.422442 z"
       style="fill:#a02c2c;fill-opacity:1;stroke:none;stroke-width:0.26458332px;stroke-linecap:butt;stroke-linejoin:miter;stroke-opacity:1" />
  </g>
</svg>
