<?xml version="1.0" encoding="UTF-8" standalone="no"?>
<!-- Created with Inkscape (http://www.inkscape.org/) -->

<svg
   xmlns:dc="http://purl.org/dc/elements/1.1/"
   xmlns:cc="http://creativecommons.org/ns#"
   xmlns:rdf="http://www.w3.org/1999/02/22-rdf-syntax-ns#"
   xmlns:svg="http://www.w3.org/2000/svg"
   xmlns="http://www.w3.org/2000/svg"
   xmlns:sodipodi="http://sodipodi.sourceforge.net/DTD/sodipodi-0.dtd"
   xmlns:inkscape="http://www.inkscape.org/namespaces/inkscape"
   width="128"
   height="128"
   viewBox="0 0 33.866667 33.866667"
   version="1.1"
   id="svg827"
   inkscape:version="0.92.3 (2405546, 2018-03-11)"
   sodipodi:docname="square_handlebar_mustache.svg"
   inkscape:export-filename="C:\Users\steve\Documents\ludum-dare-43\assets\square_avatar_1.png"
   inkscape:export-xdpi="96"
   inkscape:export-ydpi="96">
  <defs
     id="defs821" />
  <sodipodi:namedview
     id="base"
     pagecolor="#ffffff"
     bordercolor="#666666"
     borderopacity="1.0"
     inkscape:pageopacity="0.0"
     inkscape:pageshadow="2"
     inkscape:zoom="18.041739"
     inkscape:cx="78.805459"
     inkscape:cy="87.642182"
     inkscape:document-units="mm"
     inkscape:current-layer="layer8"
     showgrid="false"
     units="px"
     width="96px"
     inkscape:window-width="2736"
     inkscape:window-height="1699"
     inkscape:window-x="-13"
     inkscape:window-y="-13"
     inkscape:window-maximized="1"
     showguides="true" />
  <metadata
     id="metadata824">
    <rdf:RDF>
      <cc:Work
         rdf:about="">
        <dc:format>image/svg+xml</dc:format>
        <dc:type
           rdf:resource="http://purl.org/dc/dcmitype/StillImage" />
        <dc:title></dc:title>
      </cc:Work>
    </rdf:RDF>
  </metadata>
  <g
     inkscape:groupmode="layer"
     id="layer8"
     inkscape:label="handlebar_mustache"
     style="display:inline"
     sodipodi:insensitive="true">
    <path
       style="fill:#483737;fill-opacity:1;stroke:none;stroke-width:0.31100109px;stroke-linecap:butt;stroke-linejoin:miter;stroke-opacity:1"
       d="m 17.223266,17.138769 c 0,0 -0.774653,-1.480042 -1.804078,-1.508982 -1.029425,-0.02894 -1.468768,1.440062 -2.346637,1.389981 -0.877868,-0.05008 -1.705036,-1.499268 -1.705036,-1.499268 0,0 0.266153,2.38423 1.549217,2.564049 1.283061,0.179824 2.201836,-1.350177 2.58304,-1.132787 0.381205,0.217391 1.43403,0.860659 1.723494,0.18701 z"
       id="path5813"
       inkscape:connector-curvature="0"
       sodipodi:nodetypes="csscccc" />
    <path
       sodipodi:nodetypes="csscccc"
       inkscape:connector-curvature="0"
       id="path5817"
       d="m 16.967058,17.138769 c 0,0 0.774653,-1.480042 1.804078,-1.508982 1.029425,-0.02894 1.468768,1.440062 2.346637,1.389981 0.877868,-0.05008 1.705036,-1.499268 1.705036,-1.499268 0,0 -0.266153,2.38423 -1.549217,2.564049 -1.283061,0.179824 -2.201836,-1.350177 -2.58304,-1.132787 -0.381205,0.217391 -1.43403,0.860659 -1.723494,0.18701 z"
       style="fill:#483737;fill-opacity:1;stroke:none;stroke-width:0.31100109px;stroke-linecap:butt;stroke-linejoin:miter;stroke-opacity:1" />
  </g>
</svg>
