<?xml version="1.0" encoding="UTF-8" standalone="no"?>
<!-- Created with Inkscape (http://www.inkscape.org/) -->

<svg
   xmlns:dc="http://purl.org/dc/elements/1.1/"
   xmlns:cc="http://creativecommons.org/ns#"
   xmlns:rdf="http://www.w3.org/1999/02/22-rdf-syntax-ns#"
   xmlns:svg="http://www.w3.org/2000/svg"
   xmlns="http://www.w3.org/2000/svg"
   xmlns:sodipodi="http://sodipodi.sourceforge.net/DTD/sodipodi-0.dtd"
   xmlns:inkscape="http://www.inkscape.org/namespaces/inkscape"
   width="128"
   height="128"
   viewBox="0 0 33.866667 33.866667"
   version="1.1"
   id="svg827"
   inkscape:version="0.92.3 (2405546, 2018-03-11)"
   sodipodi:docname="square_crew_cut.svg"
   inkscape:export-filename="C:\Users\steve\Documents\ludum-dare-43\assets\square_avatar_1.png"
   inkscape:export-xdpi="96"
   inkscape:export-ydpi="96">
  <defs
     id="defs821" />
  <sodipodi:namedview
     id="base"
     pagecolor="#ffffff"
     bordercolor="#666666"
     borderopacity="1.0"
     inkscape:pageopacity="0.0"
     inkscape:pageshadow="2"
     inkscape:zoom="9.0208696"
     inkscape:cx="106.22624"
     inkscape:cy="76.350909"
     inkscape:document-units="mm"
     inkscape:current-layer="layer3"
     showgrid="false"
     units="px"
     width="96px"
     inkscape:window-width="2736"
     inkscape:window-height="1699"
     inkscape:window-x="-13"
     inkscape:window-y="-13"
     inkscape:window-maximized="1"
     showguides="true" />
  <metadata
     id="metadata824">
    <rdf:RDF>
      <cc:Work
         rdf:about="">
        <dc:format>image/svg+xml</dc:format>
        <dc:type
           rdf:resource="http://purl.org/dc/dcmitype/StillImage" />
        <dc:title></dc:title>
      </cc:Work>
    </rdf:RDF>
  </metadata>
  <g
     inkscape:groupmode="layer"
     id="layer3"
     inkscape:label="crew_cut"
     style="display:inline"
     sodipodi:insensitive="true">
    <path
       transform="translate(0,-263.13333)"
       style="fill:#784421;fill-opacity:1;stroke:none;stroke-width:0.26458332;stroke-opacity:0.66666667"
       d="m 10.35354,267.11255 h 13.286551 c 2.551077,0 4.636324,2.05394 4.604832,4.60483 l -0.02933,2.37575 c -0.03149,2.55088 -1.87795,-3.38334 -5.748707,-3.37297 l -10.940141,0.0293 c -3.6805842,0.01 -5.8388586,5.89452 -5.8073664,3.34364 l 0.02933,-2.37575 c 0.031492,-2.55089 2.0537547,-4.60483 4.6048314,-4.60483 z"
       id="rect5117"
       inkscape:connector-curvature="0"
       sodipodi:nodetypes="cssssssssc" />
    <path
       transform="translate(0,-263.13333)"
       sodipodi:nodetypes="sccssccss"
       inkscape:connector-curvature="0"
       id="path5164"
       d="m 22.942492,270.22766 c 2.551077,1.2e-4 5.302431,3.60639 5.302431,3.60639 l -0.02933,0.25908 c -0.09486,2.54931 -1.87795,-3.38334 -5.748707,-3.37297 l -10.940141,0.0293 c -3.6805842,0.01 -5.9022237,5.89295 -5.8073664,3.34364 l 0.02933,-0.25908 c 0,0 2.8116851,-3.59738 5.3627474,-3.60639 3.851995,-0.0136 7.500715,-1.7e-4 11.831036,3e-5 z"
       style="fill:#673b1c;fill-opacity:1;stroke:none;stroke-width:0.26458332;stroke-opacity:0.66666667" />
  </g>
</svg>
