<?xml version="1.0" encoding="UTF-8" standalone="no"?>
<!-- Created with Inkscape (http://www.inkscape.org/) -->

<svg
   xmlns:dc="http://purl.org/dc/elements/1.1/"
   xmlns:cc="http://creativecommons.org/ns#"
   xmlns:rdf="http://www.w3.org/1999/02/22-rdf-syntax-ns#"
   xmlns:svg="http://www.w3.org/2000/svg"
   xmlns="http://www.w3.org/2000/svg"
   xmlns:sodipodi="http://sodipodi.sourceforge.net/DTD/sodipodi-0.dtd"
   xmlns:inkscape="http://www.inkscape.org/namespaces/inkscape"
   width="128"
   height="128"
   viewBox="0 0 33.866667 33.866667"
   version="1.1"
   id="svg827"
   inkscape:version="0.92.3 (2405546, 2018-03-11)"
   sodipodi:docname="square_baseball_cap.svg"
   inkscape:export-filename="C:\Users\steve\Documents\ludum-dare-43\assets\square_avatar_1.png"
   inkscape:export-xdpi="96"
   inkscape:export-ydpi="96">
  <defs
     id="defs821" />
  <sodipodi:namedview
     id="base"
     pagecolor="#ffffff"
     bordercolor="#666666"
     borderopacity="1.0"
     inkscape:pageopacity="0.0"
     inkscape:pageshadow="2"
     inkscape:zoom="18.041739"
     inkscape:cx="79.807566"
     inkscape:cy="89.627536"
     inkscape:document-units="mm"
     inkscape:current-layer="layer15"
     showgrid="false"
     units="px"
     width="96px"
     inkscape:window-width="2736"
     inkscape:window-height="1699"
     inkscape:window-x="-13"
     inkscape:window-y="-13"
     inkscape:window-maximized="1"
     showguides="true" />
  <metadata
     id="metadata824">
    <rdf:RDF>
      <cc:Work
         rdf:about="">
        <dc:format>image/svg+xml</dc:format>
        <dc:type
           rdf:resource="http://purl.org/dc/dcmitype/StillImage" />
        <dc:title></dc:title>
      </cc:Work>
    </rdf:RDF>
  </metadata>
  <g
     inkscape:groupmode="layer"
     id="layer15"
     inkscape:label="baseball_cap"
     style="display:inline">
    <path
       style="fill:#677821;fill-opacity:1;stroke:none;stroke-width:0.87087935;stroke-miterlimit:4;stroke-dasharray:none;stroke-opacity:1"
       d="M 17.725304,0.41769206 C 11.250955,0.15343382 5.8627346,3.3627532 5.6906698,7.5857334 c 1.061e-4,0.020419 3.372e-4,0.040841 6.935e-4,0.061265 0,0 6.7710387,0.6688067 11.7921397,0.7450022 5.436931,0.082506 8.918232,-0.4418175 11.388135,-0.8764442 0.172461,-4.22283 -4.67217,-6.83373078 -11.146319,-7.09786384 z"
       id="path6455"
       inkscape:connector-curvature="0"
       sodipodi:nodetypes="cccsccc" />
    <path
       style="fill:#677821;fill-opacity:1;stroke:none;stroke-width:0.26458332px;stroke-linecap:butt;stroke-linejoin:miter;stroke-opacity:1"
       d="M 6.1389032,7.6726298 0.29035353,7.1334018 0.43197195,5.6489247 6.8631344,5.9338141 Z"
       id="path6460"
       inkscape:connector-curvature="0"
       sodipodi:nodetypes="ccccc" />
    <path
       style="fill:#445016;stroke:none;stroke-width:0.26458332px;stroke-linecap:butt;stroke-linejoin:miter;stroke-opacity:1"
       d="m 0.29035353,7.1334018 c 0,0 6.47073587,0.6947746 9.39501057,0.9229095 2.9242749,0.2281351 6.8544489,0.5606002 11.0645439,0.3525721 4.407151,-0.2177649 8.121729,-0.893327 8.121729,-0.893327 l -0.0021,-0.4443732 c 0,0 -4.407152,0.6636652 -7.103292,0.8088421 C 19.070005,8.0252022 12.799828,7.8841453 8.1713778,7.4652346 3.4738726,7.0400739 0.36294192,6.7186111 0.36294192,6.7186111 Z"
       id="path6462"
       inkscape:connector-curvature="0"
       sodipodi:nodetypes="csscccscc" />
    <path
       style="fill:#445016;fill-opacity:1;stroke:none;stroke-width:0.26458332px;stroke-linecap:butt;stroke-linejoin:miter;stroke-opacity:1"
       d="m 18.937444,1.1543449 c 0,0 -0.967956,0.4383179 -1.682976,0.4180076 -0.71502,-0.02031 -1.595539,-0.4957322 -1.595539,-0.4957322 0,0 0.418606,-0.86372029 1.644189,-0.87111632 1.13043,-0.006822 1.634326,0.94884032 1.634326,0.94884092 z"
       id="path6464"
       inkscape:connector-curvature="0"
       sodipodi:nodetypes="cscsc" />
  </g>
</svg>
