<?xml version="1.0" encoding="UTF-8" standalone="no"?>
<!-- Created with Inkscape (http://www.inkscape.org/) -->

<svg
   xmlns:dc="http://purl.org/dc/elements/1.1/"
   xmlns:cc="http://creativecommons.org/ns#"
   xmlns:rdf="http://www.w3.org/1999/02/22-rdf-syntax-ns#"
   xmlns:svg="http://www.w3.org/2000/svg"
   xmlns="http://www.w3.org/2000/svg"
   xmlns:sodipodi="http://sodipodi.sourceforge.net/DTD/sodipodi-0.dtd"
   xmlns:inkscape="http://www.inkscape.org/namespaces/inkscape"
   width="128"
   height="128"
   viewBox="0 0 33.866667 33.866667"
   version="1.1"
   id="svg827"
   inkscape:version="0.92.3 (2405546, 2018-03-11)"
   sodipodi:docname="triangle_spiky_hair.svg"
   inkscape:export-filename="C:\Users\steve\Documents\ludum-dare-43\assets\square_avatar_1.png"
   inkscape:export-xdpi="96"
   inkscape:export-ydpi="96">
  <defs
     id="defs821" />
  <sodipodi:namedview
     id="base"
     pagecolor="#ffffff"
     bordercolor="#666666"
     borderopacity="1.0"
     inkscape:pageopacity="0.0"
     inkscape:pageshadow="2"
     inkscape:zoom="9.0208696"
     inkscape:cx="108.94694"
     inkscape:cy="73.127808"
     inkscape:document-units="mm"
     inkscape:current-layer="layer7"
     showgrid="false"
     units="px"
     width="96px"
     inkscape:window-width="2736"
     inkscape:window-height="1699"
     inkscape:window-x="-13"
     inkscape:window-y="-13"
     inkscape:window-maximized="1"
     showguides="true"
     inkscape:guide-bbox="true">
    <sodipodi:guide
       position="-44.875109,8.2124382"
       orientation="1,0"
       id="guide6466"
       inkscape:locked="false" />
  </sodipodi:namedview>
  <metadata
     id="metadata824">
    <rdf:RDF>
      <cc:Work
         rdf:about="">
        <dc:format>image/svg+xml</dc:format>
        <dc:type
           rdf:resource="http://purl.org/dc/dcmitype/StillImage" />
        <dc:title></dc:title>
      </cc:Work>
    </rdf:RDF>
  </metadata>
  <g
     inkscape:groupmode="layer"
     id="layer7"
     inkscape:label="spiky_hair"
     style="display:inline"
     sodipodi:insensitive="true">
    <path
       style="fill:#483737;fill-opacity:1;stroke:none;stroke-width:0.26458332px;stroke-linecap:butt;stroke-linejoin:miter;stroke-opacity:1"
       d="m 5.9100224,6.604305 c 0,0 6.9512416,0.4986123 10.8814806,0.4839472 3.930238,-0.014666 11.17478,-0.5426075 11.248107,-0.9385644 0.580776,-2.8706042 -2.226455,-2.0996246 -2.405066,-3.3729655 -0.09088,-0.6478854 1.730477,-1.715813 1.730477,-1.715813 0,0 -2.110899,-0.060503 -3.907673,0.3714465 -1.458832,0.350707 -2.93656,1.2858699 -2.955578,0.6844385 0.01491,-0.7904137 1.055885,-1.7891383 1.055885,-1.7891383 0,0 -2.411241,0.23853793 -4.116768,1.2257913 -1.107594,0.6411362 -1.274139,1.9775995 -1.909227,0.7572459 -0.483947,-0.9825595 0.159968,-1.83638654 0.159968,-1.83638654 0,0 -1.460877,0.20655562 -2.863679,0.93586944 -1.144715,0.5951346 -1.618953,2.2315891 -2.034149,1.2164636 -0.503465,-1.230936 0.527637,-1.96168716 0.527637,-1.96168716 0,0 -2.6593539,0.44301906 -3.4756207,1.04121986 C 6.9706582,2.3475316 5.6326633,3.2506183 5.9100224,6.604305 Z"
       id="path6501"
       inkscape:connector-curvature="0"
       sodipodi:nodetypes="cscscsccsccsscsc" />
    <path
       style="fill:#3c2e2e;fill-opacity:1;stroke:none;stroke-width:0.26458332px;stroke-linecap:butt;stroke-linejoin:miter;stroke-opacity:1"
       d="m 5.9618712,4.7261974 c 0,0 0.3373943,0.9908278 0.9422121,1.2974267 0.9520609,0.4826261 5.7781447,0.5187009 9.2623867,0.5601799 3.484242,0.041479 10.509759,-0.1088826 11.370452,-1.0577164 0.311092,-0.2903534 0.482193,-0.6844047 0.482193,-0.6844047 0,0 0.114068,0.5081187 0.08296,0.7881024 -0.03111,0.2799839 0.01346,0.5127783 -0.139994,0.5962618 C 27.503696,6.475418 23.648257,6.9985949 17.602682,7.0919228 12.480617,7.1709942 5.9100224,6.604305 5.9100224,6.604305 Z"
       id="path6503"
       inkscape:connector-curvature="0"
       sodipodi:nodetypes="csscccsscc" />
  </g>
</svg>
