<?xml version="1.0" encoding="UTF-8" standalone="no"?>
<!-- Created with Inkscape (http://www.inkscape.org/) -->

<svg
   xmlns:dc="http://purl.org/dc/elements/1.1/"
   xmlns:cc="http://creativecommons.org/ns#"
   xmlns:rdf="http://www.w3.org/1999/02/22-rdf-syntax-ns#"
   xmlns:svg="http://www.w3.org/2000/svg"
   xmlns="http://www.w3.org/2000/svg"
   xmlns:sodipodi="http://sodipodi.sourceforge.net/DTD/sodipodi-0.dtd"
   xmlns:inkscape="http://www.inkscape.org/namespaces/inkscape"
   width="128"
   height="128"
   viewBox="0 0 33.866667 33.866667"
   version="1.1"
   id="svg827"
   inkscape:version="0.92.3 (2405546, 2018-03-11)"
   sodipodi:docname="chirper_icon.svg"
   inkscape:export-filename="C:\Users\steve\Documents\ludum-dare-43\assets\square_avatar_1.png"
   inkscape:export-xdpi="96"
   inkscape:export-ydpi="96">
  <defs
     id="defs821" />
  <sodipodi:namedview
     id="base"
     pagecolor="#ffffff"
     bordercolor="#666666"
     borderopacity="1.0"
     inkscape:pageopacity="0.0"
     inkscape:pageshadow="2"
     inkscape:zoom="12.757436"
     inkscape:cx="52.513245"
     inkscape:cy="52.507124"
     inkscape:document-units="mm"
     inkscape:current-layer="layer1"
     showgrid="false"
     units="px"
     width="96px"
     inkscape:window-width="2736"
     inkscape:window-height="1699"
     inkscape:window-x="-13"
     inkscape:window-y="-13"
     inkscape:window-maximized="1"
     showguides="true"
     inkscape:guide-bbox="true">
    <sodipodi:guide
       position="-44.875109,8.2124382"
       orientation="1,0"
       id="guide6466"
       inkscape:locked="false" />
  </sodipodi:namedview>
  <metadata
     id="metadata824">
    <rdf:RDF>
      <cc:Work
         rdf:about="">
        <dc:format>image/svg+xml</dc:format>
        <dc:type
           rdf:resource="http://purl.org/dc/dcmitype/StillImage" />
        <dc:title></dc:title>
      </cc:Work>
    </rdf:RDF>
  </metadata>
  <g
     inkscape:groupmode="layer"
     id="layer1"
     inkscape:label="bg"
     style="display:inline">
    <rect
       style="fill:#2ad4ff;fill-opacity:1;stroke:none;stroke-width:0.44267073;stroke-miterlimit:4;stroke-dasharray:none;stroke-opacity:0.49264706"
       id="rect3786"
       width="33.866665"
       height="33.866665"
       x="0"
       y="-1.11262e-007" />
  </g>
  <g
     inkscape:groupmode="layer"
     id="layer2"
     inkscape:label="fg"
     style="display:inline">
    <path
       style="fill:#ffffff;fill-opacity:1;stroke:none;stroke-width:0.85312504;stroke-miterlimit:4;stroke-dasharray:none;stroke-opacity:0.49264706"
       d="M 48.882812,21.742188 A 16.014253,16.014253 0 0 0 32.867188,37.755859 16.014253,16.014253 0 0 0 48.882812,53.769531 16.014253,16.014253 0 0 0 64.896484,37.755859 16.014253,16.014253 0 0 0 48.882812,21.742188 Z m 0,8.287109 a 7.7278095,7.7278095 0 0 1 7.726563,7.726562 7.7278095,7.7278095 0 0 1 -7.726563,7.728516 7.7278095,7.7278095 0 0 1 -7.728515,-7.728516 7.7278095,7.7278095 0 0 1 7.728515,-7.726562 z"
       id="path4596"
       inkscape:connector-curvature="0"
       transform="scale(0.26458333)" />
    <path
       sodipodi:type="star"
       style="fill:#ffffff;fill-opacity:1;stroke:none;stroke-width:0.5;stroke-miterlimit:4;stroke-dasharray:none;stroke-opacity:0.49264706"
       id="path4628"
       sodipodi:sides="3"
       sodipodi:cx="2.4050713"
       sodipodi:cy="5.0644732"
       sodipodi:r1="3.1395576"
       sodipodi:r2="1.5697788"
       sodipodi:arg1="0.52359878"
       sodipodi:arg2="1.5707963"
       inkscape:flatsided="true"
       inkscape:rounded="0"
       inkscape:randomized="0"
       d="m 5.1240079,6.634252 -5.43787329,-1e-7 2.71893669,-4.7093363 z"
       inkscape:transform-center-y="-0.26344971"
       transform="matrix(0.7141868,-0.25402198,0.37858033,1.0643846,7.0660077,0.51232274)"
       inkscape:transform-center-x="-0.82140965" />
    <path
       style="fill:#ffffff;fill-opacity:1;stroke:none;stroke-width:0.85312504;stroke-miterlimit:4;stroke-dasharray:none;stroke-opacity:0.49264706"
       d="M 79.119141,21.742188 A 16.014253,16.014253 0 0 0 63.103516,37.755859 16.014253,16.014253 0 0 0 79.119141,53.769531 16.014253,16.014253 0 0 0 95.132812,37.755859 16.014253,16.014253 0 0 0 79.119141,21.742188 Z m 0,8.287109 a 7.7278095,7.7278095 0 0 1 7.726562,7.726562 7.7278095,7.7278095 0 0 1 -7.726562,7.728516 7.7278095,7.7278095 0 0 1 -7.728516,-7.728516 7.7278095,7.7278095 0 0 1 7.728516,-7.726562 z"
       transform="scale(0.26458333)"
       id="circle4630"
       inkscape:connector-curvature="0" />
    <path
       inkscape:transform-center-x="0.82140995"
       transform="matrix(-0.7141868,-0.25402198,-0.37858033,1.0643846,26.800662,0.51232274)"
       inkscape:transform-center-y="-0.26344971"
       d="m 5.1240079,6.634252 -5.43787329,-1e-7 2.71893669,-4.7093363 z"
       inkscape:randomized="0"
       inkscape:rounded="0"
       inkscape:flatsided="true"
       sodipodi:arg2="1.5707963"
       sodipodi:arg1="0.52359878"
       sodipodi:r2="1.5697788"
       sodipodi:r1="3.1395576"
       sodipodi:cy="5.0644732"
       sodipodi:cx="2.4050713"
       sodipodi:sides="3"
       id="path4634"
       style="fill:#ffffff;fill-opacity:1;stroke:none;stroke-width:0.5;stroke-miterlimit:4;stroke-dasharray:none;stroke-opacity:0.49264706"
       sodipodi:type="star" />
    <path
       style="fill:#ffffff;fill-opacity:1;stroke:none;stroke-width:1.52367616;stroke-miterlimit:4;stroke-dasharray:none;stroke-opacity:0.49264706"
       d="m 64,46.984375 c -2.227528,6.44796 -8.295311,8.776939 -15.117188,8.785156 -3.251269,-0.0058 -6.423764,-1.001074 -9.095703,-2.853515 -7.882061,7.53212 -12.4062,16.3727 -12.423828,27.769531 C 27.362522,102.64271 43.765473,120.44303 64,120.44336 c 20.234527,-3.3e-4 36.63748,-17.80065 36.63672,-39.757813 -0.0127,-11.392482 -4.528729,-20.23165 -12.402345,-27.767578 -2.677642,1.855536 -5.857508,2.850308 -9.115234,2.851562 C 72.296546,55.762145 66.227763,53.433012 64,46.984375 Z m 0,7.314453 c 1.844527,0 3.689714,0.50832 4.099609,1.525391 C 68.919399,57.85836 65.63958,65.996094 64,65.996094 c -1.63958,0 -4.919399,-8.137734 -4.099609,-10.171875 C 60.310286,54.807148 62.155473,54.298828 64,54.298828 Z M 38.693359,75.0625 A 7.4419963,7.7620823 0 0 0 46,81.380859 7.4419963,7.7620823 0 0 0 53.308594,75.066406 7.4419963,7.7620823 0 0 1 53.441406,76.505859 7.4419963,7.7620823 0 0 1 46,84.269531 7.4419963,7.7620823 0 0 1 38.558594,76.505859 7.4419963,7.7620823 0 0 1 38.693359,75.0625 Z m 18,0 A 7.4419963,7.7620823 0 0 0 64,81.380859 7.4419963,7.7620823 0 0 0 71.308594,75.066406 7.4419963,7.7620823 0 0 1 71.441406,76.505859 7.4419963,7.7620823 0 0 1 64,84.269531 7.4419963,7.7620823 0 0 1 56.558594,76.505859 7.4419963,7.7620823 0 0 1 56.693359,75.0625 Z m 18,0 A 7.4419963,7.7620823 0 0 0 82,81.380859 7.4419963,7.7620823 0 0 0 89.308594,75.066406 7.4419963,7.7620823 0 0 1 89.441406,76.505859 7.4419963,7.7620823 0 0 1 82,84.269531 7.4419963,7.7620823 0 0 1 74.558594,76.505859 7.4419963,7.7620823 0 0 1 74.693359,75.0625 Z m -27,12 A 7.4419963,7.7620823 0 0 0 55,93.380859 7.4419963,7.7620823 0 0 0 62.308594,87.066406 7.4419963,7.7620823 0 0 1 62.441406,88.505859 7.4419963,7.7620823 0 0 1 55,96.269531 7.4419963,7.7620823 0 0 1 47.558594,88.505859 7.4419963,7.7620823 0 0 1 47.693359,87.0625 Z m 18,0 A 7.4419963,7.7620823 0 0 0 73,93.380859 7.4419963,7.7620823 0 0 0 80.308594,87.066406 7.4419963,7.7620823 0 0 1 80.441406,88.505859 7.4419963,7.7620823 0 0 1 73,96.269531 7.4419963,7.7620823 0 0 1 65.558594,88.505859 7.4419963,7.7620823 0 0 1 65.693359,87.0625 Z m -9,12 A 7.4419963,7.7620823 0 0 0 64,105.38086 7.4419963,7.7620823 0 0 0 71.308594,99.066406 7.4419963,7.7620823 0 0 1 71.441406,100.50586 7.4419963,7.7620823 0 0 1 64,108.26953 7.4419963,7.7620823 0 0 1 56.558594,100.50586 7.4419963,7.7620823 0 0 1 56.693359,99.0625 Z"
       transform="scale(0.26458333)"
       id="path4636"
       inkscape:connector-curvature="0" />
    <path
       style="fill:#ffffff;fill-opacity:1;stroke:none;stroke-width:0.5;stroke-miterlimit:4;stroke-dasharray:none;stroke-opacity:0.49264706"
       d="m 8.1369709,16.256889 a 5.0604472,6.3670378 0 0 0 -3.5227824,6.058028 5.0604472,6.3670378 0 0 0 4.8312297,6.352584 c -1.6916833,-1.893658 -2.7348153,-4.473758 -2.7347169,-7.31945 0.00302,-1.950723 0.5075275,-3.617158 1.4262696,-5.091162 z"
       id="path4711"
       inkscape:connector-curvature="0" />
    <path
       inkscape:connector-curvature="0"
       id="path4716"
       d="m 25.740619,16.256889 a 5.0604472,6.3670378 0 0 1 3.522785,6.058028 5.0604472,6.3670378 0 0 1 -4.831233,6.352584 c 1.691685,-1.893658 2.734817,-4.473758 2.734719,-7.31945 -0.003,-1.950723 -0.507528,-3.617158 -1.426271,-5.091162 z"
       style="fill:#ffffff;fill-opacity:1;stroke:none;stroke-width:0.5;stroke-miterlimit:4;stroke-dasharray:none;stroke-opacity:0.49264706" />
  </g>
</svg>
