<?xml version="1.0" encoding="UTF-8" standalone="no"?>
<!-- Created with Inkscape (http://www.inkscape.org/) -->

<svg
   xmlns:dc="http://purl.org/dc/elements/1.1/"
   xmlns:cc="http://creativecommons.org/ns#"
   xmlns:rdf="http://www.w3.org/1999/02/22-rdf-syntax-ns#"
   xmlns:svg="http://www.w3.org/2000/svg"
   xmlns="http://www.w3.org/2000/svg"
   xmlns:xlink="http://www.w3.org/1999/xlink"
   xmlns:sodipodi="http://sodipodi.sourceforge.net/DTD/sodipodi-0.dtd"
   xmlns:inkscape="http://www.inkscape.org/namespaces/inkscape"
   width="128"
   height="128"
   viewBox="0 0 33.866667 33.866667"
   version="1.1"
   id="svg827"
   inkscape:version="0.92.3 (2405546, 2018-03-11)"
   sodipodi:docname="investor_bro.svg"
   inkscape:export-filename="C:\Users\steve\Documents\ludum-dare-43\assets\square_avatar_1.png"
   inkscape:export-xdpi="96"
   inkscape:export-ydpi="96">
  <defs
     id="defs821">
    <linearGradient
       gradientTransform="translate(0.14201839,0.51834619)"
       inkscape:collect="always"
       xlink:href="#linearGradient6680"
       id="linearGradient6682"
       x1="24.519993"
       y1="34.599918"
       x2="14.606409"
       y2="-0.77222121"
       gradientUnits="userSpaceOnUse" />
    <linearGradient
       inkscape:collect="always"
       id="linearGradient6680">
      <stop
         style="stop-color:#e9c6af;stop-opacity:1"
         offset="0"
         id="stop6676" />
      <stop
         style="stop-color:#784421;stop-opacity:1"
         offset="1"
         id="stop6678" />
    </linearGradient>
  </defs>
  <sodipodi:namedview
     id="base"
     pagecolor="#ffffff"
     bordercolor="#666666"
     borderopacity="1.0"
     inkscape:pageopacity="0.0"
     inkscape:pageshadow="2"
     inkscape:zoom="22.627417"
     inkscape:cx="58.495636"
     inkscape:cy="22.553718"
     inkscape:document-units="mm"
     inkscape:current-layer="layer17"
     showgrid="false"
     units="px"
     width="96px"
     inkscape:window-width="2736"
     inkscape:window-height="1699"
     inkscape:window-x="-13"
     inkscape:window-y="-13"
     inkscape:window-maximized="1"
     showguides="false"
     inkscape:guide-bbox="true">
    <sodipodi:guide
       position="-44.875109,8.2124382"
       orientation="1,0"
       id="guide6466"
       inkscape:locked="false" />
  </sodipodi:namedview>
  <metadata
     id="metadata824">
    <rdf:RDF>
      <cc:Work
         rdf:about="">
        <dc:format>image/svg+xml</dc:format>
        <dc:type
           rdf:resource="http://purl.org/dc/dcmitype/StillImage" />
        <dc:title></dc:title>
      </cc:Work>
    </rdf:RDF>
  </metadata>
  <g
     inkscape:groupmode="layer"
     id="layer16"
     inkscape:label="bg"
     style="display:inline"
     sodipodi:insensitive="true">
    <rect
       style="fill:url(#linearGradient6682);fill-opacity:1;stroke:none;stroke-width:1.05833328;stroke-miterlimit:4;stroke-dasharray:none;stroke-opacity:1"
       id="rect6674"
       width="36.134727"
       height="35.606785"
       x="-0.85520613"
       y="-0.40052861" />
  </g>
  <g
     inkscape:groupmode="layer"
     id="layer17"
     inkscape:label="face"
     style="display:inline">
    <path
       style="fill:#800000;fill-opacity:1;stroke:none;stroke-width:0.26458332px;stroke-linecap:butt;stroke-linejoin:miter;stroke-opacity:1"
       d="m 12.464782,27.084702 -0.163704,-3.26534 c 0,0 3.366294,-0.315865 5.051396,-0.315711 1.677311,1.53e-4 5.028006,0.315711 5.028006,0.315711 l -0.116931,3.171797 z"
       id="path6988"
       inkscape:connector-curvature="0"
       sodipodi:nodetypes="ccsccc" />
    <path
       style="fill:#f4e3d7;fill-opacity:1;stroke:none;stroke-width:1.05833328;stroke-miterlimit:4;stroke-dasharray:none;stroke-opacity:1"
       d="m 11.760352,21.869606 h 11.073273 c 0.554001,0 -1.141365,1.504884 -1.116666,2.058335 l 0.08268,1.852741 c 0.0247,0.55345 4.762984,7.879168 4.208983,7.879168 H 8.585352 c -0.554,0 4.184285,-7.325718 4.208984,-7.879168 l 0.08268,-1.852741 c 0.0247,-0.553451 -1.670667,-2.058335 -1.116667,-2.058335 z"
       id="rect6985"
       inkscape:connector-curvature="0"
       sodipodi:nodetypes="sssssssss" />
    <rect
       style="fill:#f4e3d7;fill-opacity:1;stroke:none;stroke-width:1.05712807;stroke-miterlimit:4;stroke-dasharray:none;stroke-opacity:1"
       id="rect6713"
       width="18"
       height="17"
       x="8.4624996"
       y="5.7874999"
       ry="2" />
    <path
       style="fill:none;stroke:#333333;stroke-width:0.26458332px;stroke-linecap:butt;stroke-linejoin:miter;stroke-opacity:1"
       d="m 16.525249,10.477829 h 2.128133"
       id="path6930"
       inkscape:connector-curvature="0" />
    <path
       inkscape:connector-curvature="0"
       id="path6932"
       d="m 23.92774,10.483676 2.531543,-0.181242"
       style="fill:none;stroke:#333333;stroke-width:0.26458332px;stroke-linecap:butt;stroke-linejoin:miter;stroke-opacity:1"
       sodipodi:nodetypes="cc" />
    <path
       sodipodi:nodetypes="sssss"
       inkscape:connector-curvature="0"
       id="path6926"
       d="m 18.168196,12.320477 c 0.584768,1.796304 1.65577,2.570606 3.44599,2.570606 1.79022,0 3.149452,-1.135727 3.149452,-2.560832 0,-1.425105 -0.572106,-2.6262349 -3.353962,-2.5901548 -3.28313,0.042582 -3.670918,1.2612278 -3.24148,2.5803808 z"
       style="fill:#333333;fill-opacity:1;stroke:none;stroke-width:1.27965188;stroke-miterlimit:4;stroke-dasharray:none;stroke-opacity:1" />
    <path
       style="fill:#666666;fill-opacity:1;stroke:none;stroke-width:1.27965188;stroke-miterlimit:4;stroke-dasharray:none;stroke-opacity:1"
       d="m 18.191581,10.876385 c 0,0 2.416522,-0.435175 3.994733,0.03561 1.517496,0.452677 2.577324,2.843358 2.577324,1.418253 0,-1.425106 -0.572094,-2.6252855 -3.353962,-2.5901549 -2.908953,0.036735 -3.218095,1.1362889 -3.218095,1.1362889 z"
       id="path6928"
       inkscape:connector-curvature="0"
       sodipodi:nodetypes="csssc" />
    <path
       sodipodi:nodetypes="cc"
       style="fill:none;stroke:#333333;stroke-width:0.26458332px;stroke-linecap:butt;stroke-linejoin:miter;stroke-opacity:1"
       d="M 11.157231,10.547988 8.4561402,10.302434"
       id="path6934"
       inkscape:connector-curvature="0" />
    <path
       style="fill:#333333;fill-opacity:1;stroke:none;stroke-width:1.27965188;stroke-miterlimit:4;stroke-dasharray:none;stroke-opacity:1"
       d="m 17.003968,12.320477 c -0.584768,1.796304 -1.65577,2.570606 -3.44599,2.570606 -1.79022,0 -3.149453,-1.135727 -3.149453,-2.560832 0,-1.425105 0.572107,-2.6262349 3.353963,-2.5901548 3.28313,0.042582 3.670917,1.2612278 3.24148,2.5803808 z"
       id="path6917"
       inkscape:connector-curvature="0"
       sodipodi:nodetypes="sssss" />
    <path
       sodipodi:nodetypes="csssc"
       inkscape:connector-curvature="0"
       id="path6920"
       d="m 16.980583,10.876385 c 0,0 -2.416522,-0.435175 -3.994733,0.03561 -1.517496,0.452677 -2.577325,2.843358 -2.577325,1.418253 0,-1.425106 0.572095,-2.6252855 3.353963,-2.5901549 2.908953,0.036735 3.218095,1.1362889 3.218095,1.1362889 z"
       style="fill:#666666;fill-opacity:1;stroke:none;stroke-width:1.27965188;stroke-miterlimit:4;stroke-dasharray:none;stroke-opacity:1" />
    <path
       style="fill:#ffcc00;fill-opacity:1;stroke:none;stroke-width:1.05833328;stroke-miterlimit:4;stroke-dasharray:none;stroke-opacity:1"
       d="m 13.931511,16.850653 h 6.764323 c 0.554,0 0.991558,0.446064 1,1 l 0.05846,3.836195 c 0.0084,0.553935 1.1415,1.11693 0.5875,1.11693 H 12.285546 c -0.554,0 0.579058,-0.562995 0.5875,-1.11693 l 0.05846,-3.836195 c 0.0084,-0.553936 0.446,-1 1,-1 z"
       id="rect6936"
       inkscape:connector-curvature="0"
       sodipodi:nodetypes="sssssssss" />
    <path
       style="fill:#ffffff;stroke:none;stroke-width:0.26458332px;stroke-linecap:butt;stroke-linejoin:miter;stroke-opacity:1"
       d="m 14.502474,19.066537 5.895248,-0.01654 c 0,0 -1.231967,2.017447 -3.08405,2.017447 -1.739129,0.02559 -2.811198,-2.000907 -2.811198,-2.000907 z"
       id="path6938"
       inkscape:connector-curvature="0"
       sodipodi:nodetypes="cccc" />
    <path
       style="fill:#ffcc00;fill-opacity:1;stroke:none;stroke-width:0.26458332px;stroke-linecap:butt;stroke-linejoin:miter;stroke-opacity:1"
       d="m 8.4501301,9.2604167 c 0,0 -0.4350216,-3.1138035 0.6614583,-4.4813801 C 9.9632553,3.7168013 12.898438,2.3647137 12.898438,2.3647137 l 0.01654,2.960026 4.150651,-2.7119791 -0.01654,2.5135416 4.977474,-2.5135416 0.165364,2.3977864 4.282943,-2.4143229 -0.01654,7.0941406 c 0,0 -0.314192,-1.6205729 -1.570963,-1.7694011 C 23.630599,7.7721355 11.707813,7.5240886 10.153385,7.788672 8.5989583,8.0532553 8.4501301,9.2604167 8.4501301,9.2604167 Z"
       id="path6941"
       inkscape:connector-curvature="0"
       sodipodi:nodetypes="csccccccccssc" />
    <path
       style="fill:#000000;fill-opacity:0.06148867;stroke:none;stroke-width:0.26458332px;stroke-linecap:butt;stroke-linejoin:miter;stroke-opacity:1"
       d="m 8.480435,19.937501 c 0,0 0.3711402,1.636555 1.694072,2.094717 1.015596,0.351723 13.558112,0.329411 14.711266,-0.03674 1.095276,-0.457102 1.555174,-2.104747 1.555174,-2.104747 0,0 0.136203,1.501104 -0.286996,1.974806 -0.534744,0.59856 -0.914105,0.797864 -1.348854,0.887983 -1.013526,0.22241 -13.796816,0.174565 -14.769488,-0.0097 C 9.3192533,22.551312 8.6558307,21.901933 8.503821,21.422518 8.3518115,20.943103 8.4804345,19.937501 8.480435,19.937501 Z"
       id="path6943"
       inkscape:connector-curvature="0"
       sodipodi:nodetypes="csccsccsc" />
    <path
       style="fill:#d4aa00;fill-opacity:1;stroke:none;stroke-width:0.26458332px;stroke-linecap:butt;stroke-linejoin:miter;stroke-opacity:1"
       d="m 12.898438,2.3647137 -0.436522,3.2780429 0.453062,-0.318017 z"
       id="path6945"
       inkscape:connector-curvature="0" />
    <path
       style="display:inline;fill:#d4aa00;fill-opacity:1;stroke:none;stroke-width:0.26458332px;stroke-linecap:butt;stroke-linejoin:miter;stroke-opacity:1"
       d="M 17.065629,2.6127606 16.670448,5.3202958 17.049089,5.1263022 Z"
       id="path6945-9"
       inkscape:connector-curvature="0"
       sodipodi:nodetypes="cccc" />
    <path
       style="display:inline;fill:#d4aa00;fill-opacity:1;stroke:none;stroke-width:0.26458332px;stroke-linecap:butt;stroke-linejoin:miter;stroke-opacity:1"
       d="M 22.026563,2.6127606 21.70993,5.2789546 22.191927,5.010547 Z"
       id="path6945-4"
       inkscape:connector-curvature="0"
       sodipodi:nodetypes="cccc" />
    <path
       style="display:inline;fill:#000000;fill-opacity:0.08737865;stroke:none;stroke-width:0.26458332px;stroke-linecap:butt;stroke-linejoin:miter;stroke-opacity:1"
       d="m 8.4510825,9.8724859 c 0,0 -0.2024268,-2.0809316 2.1581675,-2.1193858 5.461412,-0.088967 7.995266,-0.07502 13.04855,0.027172 1.153586,0.023329 2.806996,0.1574478 2.801483,2.5221609 0,0 -0.314192,-1.6205724 -1.570963,-1.7694005 C 23.631552,8.3842047 11.708765,8.1361578 10.154338,8.4007411 8.5999107,8.6653245 8.4510825,9.8724859 8.4510825,9.8724859 Z"
       id="path6941-1"
       inkscape:connector-curvature="0"
       sodipodi:nodetypes="csscssc" />
    <path
       style="fill:#c83737;stroke:none;stroke-width:0.26458332px;stroke-linecap:butt;stroke-linejoin:miter;stroke-opacity:1"
       d="m 4.832206,35.527077 c 0,0 -0.1403164,-8.363503 2.9934186,-9.065085 3.1337354,-0.701584 4.6272394,-0.561267 4.6272394,-0.561267 l 4.797352,5.332027 5.045887,-5.261869 c 0,0 3.433209,-0.282169 5.056902,1.052374 1.801695,1.480846 2.245063,8.620751 2.245063,8.620751 z"
       id="path6983"
       inkscape:connector-curvature="0"
       sodipodi:nodetypes="cscccscc" />
    <path
       style="fill:#aa0000;fill-opacity:1;stroke:none;stroke-width:0.26458332px;stroke-linecap:butt;stroke-linejoin:miter;stroke-opacity:1"
       d="m 12.301078,23.819362 c 0,0 0.322807,0.387534 0.797034,0.471392 0.366741,0.11693 1.076834,0.230192 1.076834,0.230192 0,0 -0.280603,0.974556 -0.311338,1.604738 -0.0424,0.869419 0.967464,2.425533 0.967464,2.425533 L 12.195615,25.95919 Z"
       id="path6990"
       inkscape:connector-curvature="0"
       sodipodi:nodetypes="cccsccc" />
    <path
       sodipodi:nodetypes="cccsccc"
       inkscape:connector-curvature="0"
       id="path7005"
       d="m 22.405868,23.819362 c 0,0 -0.322807,0.387534 -0.797034,0.471392 -0.366741,0.11693 -1.076834,0.230192 -1.076834,0.230192 0,0 0.280603,0.974556 0.311338,1.604738 0.0424,0.869419 -0.967464,2.425533 -0.967464,2.425533 l 2.635457,-2.592027 z"
       style="fill:#aa0000;fill-opacity:1;stroke:none;stroke-width:0.26458332px;stroke-linecap:butt;stroke-linejoin:miter;stroke-opacity:1" />
  </g>
</svg>
