<?xml version="1.0" encoding="UTF-8" standalone="no"?>
<!-- Created with Inkscape (http://www.inkscape.org/) -->

<svg
   xmlns:dc="http://purl.org/dc/elements/1.1/"
   xmlns:cc="http://creativecommons.org/ns#"
   xmlns:rdf="http://www.w3.org/1999/02/22-rdf-syntax-ns#"
   xmlns:svg="http://www.w3.org/2000/svg"
   xmlns="http://www.w3.org/2000/svg"
   xmlns:sodipodi="http://sodipodi.sourceforge.net/DTD/sodipodi-0.dtd"
   xmlns:inkscape="http://www.inkscape.org/namespaces/inkscape"
   width="128"
   height="128"
   viewBox="0 0 33.866667 33.866667"
   version="1.1"
   id="svg827"
   inkscape:version="0.92.3 (2405546, 2018-03-11)"
   sodipodi:docname="quackbot.svg">
  <defs
     id="defs821" />
  <sodipodi:namedview
     id="base"
     pagecolor="#ffffff"
     bordercolor="#666666"
     borderopacity="1.0"
     inkscape:pageopacity="0.0"
     inkscape:pageshadow="2"
     inkscape:zoom="6.3787181"
     inkscape:cx="67.263851"
     inkscape:cy="57.92983"
     inkscape:document-units="mm"
     inkscape:current-layer="layer1"
     showgrid="false"
     units="px"
     width="96px"
     inkscape:window-width="2736"
     inkscape:window-height="1699"
     inkscape:window-x="-13"
     inkscape:window-y="-13"
     inkscape:window-maximized="1" />
  <metadata
     id="metadata824">
    <rdf:RDF>
      <cc:Work
         rdf:about="">
        <dc:format>image/svg+xml</dc:format>
        <dc:type
           rdf:resource="http://purl.org/dc/dcmitype/StillImage" />
        <dc:title></dc:title>
      </cc:Work>
    </rdf:RDF>
  </metadata>
  <g
     inkscape:label="Layer 1"
     inkscape:groupmode="layer"
     id="layer1"
     transform="translate(0,-263.13333)">
    <rect
       style="fill:#eac074;fill-opacity:1;stroke:none;stroke-width:0.26458332"
       id="rect1514"
       width="48.218742"
       height="40.76889"
       x="-4.9274631"
       y="260.63062" />
    <circle
       style="fill:#72c3cb;fill-opacity:1;stroke:none;stroke-width:0.76699126;stroke-opacity:1"
       id="path1398"
       cx="10.274165"
       cy="272.61716"
       r="4.1160092" />
    <circle
       style="fill:#ffffff;fill-opacity:1;stroke:none;stroke-width:1.31826627;stroke-opacity:1"
       id="path1400"
       cx="11.27896"
       cy="271.00705"
       r="1.3316501" />
    <circle
       r="4.1160092"
       cy="272.61716"
       cx="24.032501"
       id="circle1530"
       style="fill:#72c3cb;fill-opacity:1;stroke:none;stroke-width:0.76699126;stroke-opacity:1" />
    <circle
       r="1.3316501"
       cy="271.00705"
       cx="25.037298"
       id="circle1532"
       style="fill:#ffffff;fill-opacity:1;stroke:none;stroke-width:1.31826627;stroke-opacity:1" />
    <path
       style="fill:none;stroke:#000000;stroke-width:1;stroke-linecap:butt;stroke-linejoin:miter;stroke-opacity:0.49264705;stroke-miterlimit:4;stroke-dasharray:none"
       d="m 17.213816,258.46593 v 45.2122"
       id="path1534"
       inkscape:connector-curvature="0" />
    <circle
       style="fill:#eac074;fill-opacity:1;stroke:#000000;stroke-width:0.26609248;stroke-miterlimit:4;stroke-dasharray:none;stroke-opacity:0.49264706"
       id="path1536"
       cx="14.517677"
       cy="266.26401"
       r="0.90505618" />
    <circle
       r="0.90505618"
       cy="266.26401"
       cx="19.643431"
       id="circle1547"
       style="fill:#eac074;fill-opacity:1;stroke:#000000;stroke-width:0.26609248;stroke-miterlimit:4;stroke-dasharray:none;stroke-opacity:0.49264706" />
    <circle
       r="0.90505618"
       cy="293.25192"
       cx="14.517677"
       id="circle1549"
       style="fill:#eac074;fill-opacity:1;stroke:#000000;stroke-width:0.26609248;stroke-miterlimit:4;stroke-dasharray:none;stroke-opacity:0.49264706" />
    <circle
       style="fill:#eac074;fill-opacity:1;stroke:#000000;stroke-width:0.26609248;stroke-miterlimit:4;stroke-dasharray:none;stroke-opacity:0.49264706"
       id="circle1551"
       cx="19.643431"
       cy="293.25192"
       r="0.90505618" />
    <path
       style="fill:#c91e59;fill-opacity:1;stroke:none;stroke-width:0.45393559px;stroke-linecap:butt;stroke-linejoin:miter;stroke-opacity:1"
       d="m 10.380972,284.8896 c 0,0 3.381764,1.31831 7.279392,1.43295 3.897622,0.11461 5.846436,-0.1146 5.846436,-0.1146 0,0 -0.343906,-0.88843 -0.945748,-1.37564 -0.601838,-0.4872 -1.948814,-1.46161 -2.407356,-2.52199 -0.458543,-1.06038 -1.232336,-1.66222 -2.063451,-1.66222 -0.831111,0 -2.378695,0.80245 -3.868966,2.09212 -1.490268,1.28964 -2.32138,1.00306 -3.037856,1.26099 -0.716474,0.25793 -0.802451,0.88842 -0.802451,0.88842 z"
       id="path1391"
       inkscape:connector-curvature="0" />
    <path
       style="fill:#791235;fill-opacity:1;stroke:none;stroke-width:0.45393559px;stroke-linecap:butt;stroke-linejoin:miter;stroke-opacity:1"
       d="m 23.5068,286.20795 c 0,0 -2.149426,2.77988 -7.30805,2.20671 -5.158621,-0.57318 -5.817778,-3.52503 -5.817778,-3.52503 0,0 3.396814,1.23722 6.456968,1.33998 3.597181,0.26485 6.66886,-0.0216 6.66886,-0.0216 z"
       id="path1393"
       inkscape:connector-curvature="0"
       sodipodi:nodetypes="ccccc" />
    <path
       style="fill:#3aaf85;fill-opacity:1;stroke:none;stroke-width:0.3418431;stroke-opacity:0.66666667"
       d="m 6.8039886,283.71255 c -1.3e-6,2.55672 -2.3480222,4.62936 -5.2444517,4.62936 -2.8964295,0 -5.5465988,-2.97908 -5.5466001,-5.53581 1.3e-6,-2.55672 2.6933353,-4.39195 5.7840035,-3.93873 2.8657805,0.42024 5.007047,2.28845 5.0070483,4.84518 z"
       id="path1402"
       inkscape:connector-curvature="0"
       sodipodi:nodetypes="cscsc" />
    <path
       sodipodi:nodetypes="cscsc"
       inkscape:connector-curvature="0"
       id="path5109"
       d="m 6.8039886,283.71255 c -1.3e-6,2.55672 -2.3480222,4.62936 -5.2444517,4.62936 -2.8964295,0 -5.5465988,-2.97908 -5.5466001,-5.53581 0,0 2.1134225,2.6433 5.2040907,3.09653 2.8657805,0.42023 5.5869611,-2.19008 5.5869611,-2.19008 z"
       style="fill:#2d8666;fill-opacity:0.66666667;stroke:none;stroke-width:0.3418431;stroke-opacity:0.66666667" />
    <path
       sodipodi:nodetypes="cscsc"
       inkscape:connector-curvature="0"
       id="path1563"
       d="m 38.328087,283.79551 c -2e-6,2.55672 -2.348022,4.62936 -5.244452,4.62936 -2.896429,0 -5.546599,-2.97908 -5.5466,-5.53581 1e-6,-2.55672 2.693335,-4.39195 5.784003,-3.93873 2.865781,0.42024 5.007047,2.28845 5.007049,4.84518 z"
       style="fill:#3aaf85;fill-opacity:1;stroke:none;stroke-width:0.3418431;stroke-opacity:0.66666667" />
    <path
       style="fill:#2d8666;fill-opacity:0.66666667;stroke:none;stroke-width:0.3418431;stroke-opacity:0.66666667"
       d="m 38.328087,283.79551 c -2e-6,2.55672 -2.348022,4.62936 -5.244452,4.62936 -2.896429,0 -5.546599,-2.97908 -5.5466,-5.53581 0,0 2.113422,2.6433 5.204091,3.09653 2.86578,0.42023 5.586961,-2.19008 5.586961,-2.19008 z"
       id="path1565"
       inkscape:connector-curvature="0"
       sodipodi:nodetypes="cscsc" />
  </g>
</svg>
