<?xml version="1.0" encoding="UTF-8" standalone="no"?>
<!-- Created with Inkscape (http://www.inkscape.org/) -->

<svg
   xmlns:dc="http://purl.org/dc/elements/1.1/"
   xmlns:cc="http://creativecommons.org/ns#"
   xmlns:rdf="http://www.w3.org/1999/02/22-rdf-syntax-ns#"
   xmlns:svg="http://www.w3.org/2000/svg"
   xmlns="http://www.w3.org/2000/svg"
   xmlns:sodipodi="http://sodipodi.sourceforge.net/DTD/sodipodi-0.dtd"
   xmlns:inkscape="http://www.inkscape.org/namespaces/inkscape"
   width="128"
   height="128"
   viewBox="0 0 33.866667 33.866667"
   version="1.1"
   id="svg827"
   inkscape:version="0.92.3 (2405546, 2018-03-11)"
   sodipodi:docname="quack_icon.svg">
  <defs
     id="defs821" />
  <sodipodi:namedview
     id="base"
     pagecolor="#ffffff"
     bordercolor="#666666"
     borderopacity="1.0"
     inkscape:pageopacity="0.0"
     inkscape:pageshadow="2"
     inkscape:zoom="4.5104348"
     inkscape:cx="62.710076"
     inkscape:cy="35.246744"
     inkscape:document-units="mm"
     inkscape:current-layer="layer1"
     showgrid="false"
     units="px"
     width="96px"
     inkscape:window-width="2736"
     inkscape:window-height="1699"
     inkscape:window-x="-13"
     inkscape:window-y="-13"
     inkscape:window-maximized="1" />
  <metadata
     id="metadata824">
    <rdf:RDF>
      <cc:Work
         rdf:about="">
        <dc:format>image/svg+xml</dc:format>
        <dc:type
           rdf:resource="http://purl.org/dc/dcmitype/StillImage" />
        <dc:title></dc:title>
      </cc:Work>
    </rdf:RDF>
  </metadata>
  <g
     inkscape:label="Layer 1"
     inkscape:groupmode="layer"
     id="layer1"
     transform="translate(0,-263.13333)">
    <path
       sodipodi:nodetypes="sssssss"
       inkscape:connector-curvature="0"
       id="path5113"
       d="m 27.56217,273.71412 c 0.258467,2.37264 -0.468935,4.10978 -1.853541,5.21464 -0.834118,0.6656 -3.496892,0.86575 -6.749196,0.49825 -2.868963,-0.32418 -6.015267,-0.78556 -6.770686,-1.41439 -1.290771,-1.07447 -2.099323,-2.56453 -2.099321,-4.2985 4e-6,-4.31756 3.911409,-7.81763 8.736372,-7.81763 4.824963,0 8.268798,3.52546 8.736372,7.81763 z"
       style="fill:#eac074;fill-opacity:1;stroke:none;stroke-width:0.26774922;stroke-opacity:0.05683289" />
    <path
       style="fill:#eac074;fill-opacity:1;stroke:none;stroke-width:0.26458332;stroke-opacity:1"
       d="m 30.301682,286.40943 c 0,4.2253 -6.713054,7.81763 -13.881311,7.81763 -7.168257,0 -11.8179575,-3.69859 -12.0438353,-7.91785 -0.3674953,-6.86459 5.5723663,-8.33549 13.1129123,-8.0849 8.496096,0.28234 12.812234,3.95982 12.812234,8.18512 z"
       id="path1388"
       inkscape:connector-curvature="0"
       sodipodi:nodetypes="sssss" />
    <path
       style="fill:#e2a83f;fill-opacity:1;stroke:none;stroke-width:0.26774922;stroke-opacity:0.05683289"
       d="m 27.122218,276.3245 c -0.46427,1.62968 -0.101568,1.61347 -1.486177,2.71833 -0.834118,0.6656 -3.424304,0.75168 -6.676608,0.38418 -2.868963,-0.32418 -6.011461,-0.81336 -6.781056,-1.42476 -1.052266,-0.83597 -2.00706,-1.91732 -2.088951,-3.97704 0,0 0.319614,3.40481 7.790639,4.40714 9.195204,1.23364 9.242153,-2.10785 9.242153,-2.10785 z"
       id="path1383"
       inkscape:connector-curvature="0"
       sodipodi:nodetypes="sssssss" />
    <path
       style="fill:#c91e59;stroke:none;stroke-width:0.26458332px;stroke-linecap:butt;stroke-linejoin:miter;stroke-opacity:1;fill-opacity:1"
       d="m 20.646571,276.2532 c 0,0 1.971113,0.7684 4.242905,0.83522 2.271789,0.0668 3.407685,-0.0668 3.407685,-0.0668 0,0 -0.200451,-0.51783 -0.551244,-0.80181 -0.35079,-0.28397 -1.135896,-0.85192 -1.403164,-1.46998 -0.267269,-0.61806 -0.718286,-0.96885 -1.202714,-0.96885 -0.484426,0 -1.386459,0.46772 -2.255086,1.21942 -0.868626,0.75169 -1.353052,0.58465 -1.770661,0.73499 -0.417608,0.15034 -0.467721,0.51783 -0.467721,0.51783 z"
       id="path1391"
       inkscape:connector-curvature="0" />
    <path
       style="fill:#791235;fill-opacity:1;stroke:none;stroke-width:0.26458332px;stroke-linecap:butt;stroke-linejoin:miter;stroke-opacity:1"
       d="m 28.297161,277.02162 c 0,0 -1.252826,1.6203 -4.259609,1.28622 -3.006781,-0.33409 -3.390981,-2.05462 -3.390981,-2.05462 0,0 1.979885,0.72113 3.763543,0.78103 2.096672,0.15437 3.887047,-0.0126 3.887047,-0.0126 z"
       id="path1393"
       inkscape:connector-curvature="0"
       sodipodi:nodetypes="ccccc" />
    <circle
       style="fill:#72c3cb;fill-opacity:1;stroke:none;stroke-width:0.26458332;stroke-opacity:1"
       id="path1398"
       cx="18.341372"
       cy="273.49698"
       r="1.4198694" />
    <circle
       style="fill:#ffffff;fill-opacity:1;stroke:none;stroke-width:0.45475259;stroke-opacity:1"
       id="path1400"
       cx="18.687988"
       cy="272.94156"
       r="0.45936951" />
    <path
       sodipodi:nodetypes="sssss"
       inkscape:connector-curvature="0"
       id="path5111"
       d="m 30.301682,286.40943 c 0,4.2253 -6.713054,7.81763 -13.881311,7.81763 -7.168257,0 -11.9640588,-3.6933 -12.0438353,-7.91785 -0.015534,-0.82258 4.22318,4.68709 11.7637263,4.93768 8.496096,0.28234 14.16142,-4.83746 14.16142,-4.83746 z"
       style="fill:#e2a83f;fill-opacity:1;stroke:none;stroke-width:0.26458332;stroke-opacity:1" />
    <path
       style="fill:#3aaf85;fill-opacity:1;stroke:none;stroke-width:0.26458332;stroke-opacity:0.66666669"
       d="m 11.826677,285.2151 c -10e-7,1.97888 -1.817347,3.58308 -4.059156,3.58308 -2.2418089,0 -4.2930151,-2.30578 -4.2930163,-4.28466 1.2e-6,-1.97888 2.0846161,-3.39933 4.4767643,-3.04854 2.218087,0.32526 3.875407,1.77124 3.875408,3.75012 z"
       id="path1402"
       inkscape:connector-curvature="0"
       sodipodi:nodetypes="cscsc" />
    <path
       sodipodi:nodetypes="cscsc"
       inkscape:connector-curvature="0"
       id="path5109"
       d="m 11.826677,285.2151 c -10e-7,1.97888 -1.817347,3.58308 -4.059156,3.58308 -2.2418089,0 -4.2930151,-2.30578 -4.2930163,-4.28466 0,0 1.6357694,2.04589 4.0279176,2.39668 2.218087,0.32526 4.3242547,-1.6951 4.3242547,-1.6951 z"
       style="fill:#2d8666;fill-opacity:0.66666669;stroke:none;stroke-width:0.26458332;stroke-opacity:0.66666667" />
  </g>
</svg>
